# 18291 vertice(s)
v 0.696169912815094 -0.000169494524016045 -0.000126075130538084
v 0.692065000534058 2.32216595405126E-39 -0.000105276616523042
v 0.756021320819855 0 -0.000121721619507298
v 0.714962303638458 8.7008828961177E-12 -0.000143524099257775
v 0.666865587234497 9.31804624240502E-40 -0.000146633828990161
v 0.754237055778503 8.7008828961177E-12 -0.000132153334561735
v 0.699759423732758 9.31804624240502E-40 -0.000124993603094481
v 0.741057872772217 0 -8.31750221550465E-05
v 0.75242692232132 0 -0.00011788122355938
v 0.719690918922424 0 -0.000152414519106969
v 0.707446277141571 0 -0.000124303667689674
v 0.70983761548996 -0.000252885685767978 -0.000117369891086128
v 0.732821881771088 -0.000213938066735864 -9.80268087005243E-05
v 0.761208593845367 -0.000286927970591933 -3.94989801861811E-05
v 0.737009167671204 -0.000236823383602314 -0.000115409609861672
v 0.740166962146759 -0.000258885935181752 -0.000120774428069126
v 0.746846139431 -0.000248619093326852 -9.29154266486876E-05
v 0.751270413398743 -0.000188123114639893 -0.000116019815322943
v 0.748207867145538 -0.000268033880274743 -0.000124097059597261
v 0.761039674282074 -0.000189050217159092 -0.000104984530480579
v 0.731451511383057 -0.000294395111268386 -0.000140802425448783
v 0.738757133483887 -0.000262362766079605 -0.000116214905574452
v 0.75100564956665 -0.000238904991419986 -0.000127041523228399
v 0.822816967964172 -0.000336315453751013 -0.000122003344586119
v 0.763539493083954 -0.000149210303789005 -9.23165134736337E-05
v 0.735618531703949 -0.000190981067134999 -0.000131530643557198
v 0.782227277755737 -0.00022928262478672 -9.2771471827291E-05
v 0.77061665058136 -0.000219456545892172 -0.000144466714118607
v 0.773555874824524 -0.00023477959621232 -0.000128747677081265
v 0.770683646202087 -0.000271630065981299 -0.00011723639909178
v 0.762077689170837 -0.000182598785613663 -0.000165038043633103
v 0.78661185503006 -0.000227762517170049 -7.32210683054291E-05
v 0.781519949436188 -0.00028304208535701 -9.3718983407598E-05
v 0.793400764465332 -0.00029069377342239 -0.000112514462671243
v 0.785593152046204 -0.000320717546856031 -0.000107692583696917
v 0.783596992492676 -0.00021629458933603 -0.00011521196574904
v 0.816929221153259 -0.000165692894370295 -0.000133295368868858
v 0.80390328168869 -0.000215892054256983 -8.96056008059531E-05
v 0.796231389045715 -0.000266549992375076 -0.000111768524220679
v 0.835203349590302 -0.000297508377116174 -0.000138895527925342
v 0.784439027309418 -0.000342861574608833 -0.000142650387715548
v 0.791372537612915 -0.000212577127967961 -0.000157383765326813
v 0.76816999912262 -0.000155044894199818 -0.000106140942079946
v 0.805251121520996 -0.000242527763475664 -8.13094738987274E-05
v 0.839152336120605 -0.000210286365472712 -0.000105943399830721
v 0.818973243236542 -0.000164320794283412 -0.000130802451167256
v 0.86193436384201 -0.000181406663614325 -0.000145994490594603
v 0.833141982555389 -0.000226354051847011 -0.000168250378919765
v 0.846943736076355 -0.000270284246653318 -0.000104316670331173
v 0.820854902267456 -0.000247537769610062 -7.6084237662144E-05
v 0.82639217376709 -0.00032101440592669 -0.000119014184747357
v 0.857375800609589 -0.000236587933613919 -0.000103192556707654
v 0.816885471343994 -0.000199375135707669 -8.06361422291957E-05
v 0.828981637954712 -0.000215685533476062 -8.90205847099423E-05
v 0.896864593029022 -0.000181573050213046 -0.000111077351903077
v 0.811701774597168 -0.000209790639928542 -0.000132634944748133
v 0.852852940559387 -0.000163251184858382 -0.000121472708997317
v 0.84628301858902 -0.00027288228739053 -0.000157529459102079
v 0.855534613132477 -0.000247246091021225 -0.000116099363367539
v 0.830792427062988 -0.000320554943755269 -9.78381503955461E-05
v 0.845943927764893 -0.00021137077419553 -0.000105842053017113
v 0.929282963275909 -0.000181123963557184 -8.91022355062887E-05
v 0.829301774501801 -0.000331866758642718 -0.000102949292340782
v 0.866512954235077 -0.000243506976403296 -8.01112619228661E-05
v 0.884305894374847 -0.000158279581228271 -0.000133909867145121
v 0.906738936901093 -0.000320297433063388 -0.00012132957635913
v 0.867114245891571 -0.000177747308043763 -0.000157303991727531
v 0.941631019115448 -0.000192237057490274 -0.000103724698419683
v 0.927272081375122 -0.000285895977867767 -8.88818613020703E-05
v 0.913306891918182 -0.000231112077017315 -0.000162854965310544
v 0.893855392932892 -0.000223943978198804 -0.000119494696264155
v 0.9220911860466 -0.000179636583197862 -7.76715751271695E-05
v 0.949817836284637 -0.000288882933091372 -0.000157177622895688
v 0.949269354343414 -0.000243106260313652 -8.72248638188466E-05
v 0.954788863658905 -0.000185864759259857 -9.43353225011379E-05
v 0.947576403617859 -0.000316104415105656 -0.000140295989695005
v 0.90694785118103 -0.000187598998309113 -0.000113412221253384
v 0.909041702747345 -0.000308239978039637 -0.000109894674096722
v 0.905519962310791 -0.000255170249147341 -8.81519736140035E-05
v 0.935271561145782 -0.000209695528610609 -0.000141761775012128
v 0.933605074882507 -0.000279625703115016 -0.000119298056233674
v 0.893432199954987 -0.000169702936545946 -9.12082832655869E-05
v 0.936872005462646 -0.000235976447584108 -0.000155119996634312
v 1.00043845176697 -0.000196616238099523 -9.20593156479299E-05
v 0.946098029613495 -0.000193901752936654 -0.000151260726852342
v 0.9607994556427 -0.000248385069426149 -0.000125218139146455
v 0.954997420310974 -0.000212035403819755 -0.000102902617072687
v 1.09360766410828 -0.000235478190006688 -0.000137219030875713
v 1.01414096355438 -0.000246529321884736 -8.32772930152714E-05
v 0.979109287261963 -0.00022679717221763 -0.000115799288323615
v 0.983711898326874 -0.000153685425175354 -9.64842984103598E-05
v 1.02642261981964 -0.000231965197599493 -9.51522233663127E-05
v 1.00350403785706 -0.000294137629680336 -0.000121888500871137
v 0.965948820114136 -0.000249621283728629 -0.000104050850495696
v 1.01907360553741 -0.000224353294470347 -0.00011555477976799
v 1.06041884422302 -0.000221276262891479 -0.000120977834740188
v 1.11187696456909 -0.000322299514664337 -0.000111294801172335
v 1.05938994884491 -0.000252951285801828 -7.54171123844571E-05
v 1.0359708070755 -0.000111430817923974 -0.000113830872578546
v 1.08887195587158 -0.000299057050142437 -0.000144340374390595
v 1.15565550327301 -0.000235118073760532 -0.000122495141113177
v 1.07901477813721 -0.000212317871046253 -0.000110095541458577
v 1.13015532493591 -0.000290021591354162 -0.000108585561974905
v 1.14066565036774 -0.000265065784333274 -0.000158160095452331
v 1.13248980045319 -0.000215470427065156 -0.000124129248433746
v 1.16028797626495 -0.000145273108500987 -5.46817682334222E-05
v 1.13793778419495 -0.000215751118957996 -0.000146754449815489
v 1.24682724475861 -0.000223621056647971 -0.000115378068585414
v 1.21279287338257 -0.000257658190093935 -0.000104189457488246
v 1.21167516708374 -0.000209043035283685 -0.000142320524901152
v 1.18228352069855 -0.000233545724768192 -0.000130074127810076
v 1.24000787734985 -0.000213480074307881 -0.000105736493424047
v 1.23418033123016 -0.000165917226695456 -7.12889959686436E-05
v 1.24747884273529 -0.00017936785297934 -0.000105874227301683
v 1.34295296669006 -0.000277243496384472 -0.000109736211015843
v 1.27955222129822 -0.00029741640901193 -0.000126439044834115
v 1.35629403591156 -0.000299996900139377 -0.000102582416730002
v 1.33749270439148 -0.000241092668147758 -0.000114606475108303
v 1.31336331367493 -0.000252188998274505 -0.000104759783425834
v 1.44146621227264 -0.000215560095966794 -8.14195518614724E-05
v 1.41479873657227 -0.000243491449509747 -8.80200968822464E-05
v 1.48363518714905 -0.000135473252157681 -0.000136050017317757
v 1.34025931358337 -0.000206324330065399 -0.000145949350553565
v 1.47631692886353 -0.000250572338700294 -0.000147215658216737
v 1.43634569644928 -0.000261478853644803 -0.00011830994480988
v 1.58437621593475 -0.000230809484492056 -0.000123755162348971
v 1.58585286140442 -0.000266319984802976 -0.00010578049113974
v 1.5937385559082 -0.000197060464415699 -0.000119487085612491
v 1.62879347801208 -0.000199051908566616 -6.64799663354643E-05
v 1.59486091136932 -0.000296088110189885 -0.000101248275313992
v 1.80997240543365 -0.000257268169661984 -0.000122961850138381
v 1.70912718772888 -0.000343501043971628 -0.000128313942695968
v 1.75120413303375 -0.000179410417331383 -0.000113263748062309
v 1.54965734481812 -0.000226070958888158 -0.00013068960106466
v 1.69057261943817 -0.000220980975427665 -9.67022861004807E-05
v 2.07147598266602 -0.000246650422923267 -9.76795345195569E-05
v 2.05621266365051 -0.000254018232226372 -0.00014529752661474
v 2.00062251091003 -0.00026888691354543 -0.000126247628941201
v 2.20998454093933 -0.00023312731354963 -0.00016856417641975
v 2.07866334915161 -0.000253538863034919 -8.80409788805991E-05
v 2.19105410575867 -0.000240634311921895 -0.000110938424768392
v 2.05857491493225 -0.000233961574849673 -0.000108440654003061
v 2.22386527061462 -0.000264297443209216 -0.000121037264761981
v 2.42048358917236 -0.000322712032357231 -0.000124652826343663
v 2.55033421516418 -0.000226346266572364 -0.000131949243950658
v 2.38601207733154 -0.000210037513170391 -0.000114401154860388
v 2.54167151451111 -0.000228112592594698 -0.000124417594633996
v 2.65953898429871 -0.000250259879976511 -0.000118085008580238
v 2.70595216751099 -0.000279100408079103 -0.000114810536615551
v 2.88465666770935 -0.000235444065765478 -0.000129697073134594
v 2.92507457733154 -0.000164062395924702 -0.000158362527145073
v 2.6416757106781 -0.000282310589682311 -0.000111073524749372
v 3.11325621604919 -0.000227963813813403 -0.000103070437035058
v 3.35871648788452 -0.000163330332725309 -0.00011194030957995
v 3.5502724647522 -0.000151694417581894 -0.000122808502055705
v 3.32706522941589 -0.000278921943390742 -0.000136961243697442
v 3.51404500007629 -0.000165650693816133 -0.00011553803778952
v 3.62395787239075 -0.000233802784350701 -8.05093368398957E-05
v 3.76002836227417 -0.00019379761943128 -0.000138536561280489
v 4.06068181991577 -0.00025127871776931 -0.000111867302621249
v 4.14884328842163 -0.000284972658846527 -8.01501082605682E-05
v 4.21818780899048 -0.000258670916082337 -7.44400822441094E-05
v 4.37121486663818 -0.000288265524432063 -0.000136873670271598
v 5.14301586151123 -0.000303797103697434 -8.12887665233575E-05
v 4.89767551422119 -0.000179728318471462 -0.000114732625661418
v 4.95137405395508 -0.000215912237763405 -9.51011243159883E-05
v 5.25566434860229 -0.000274296384304762 -0.000123308491311036
v 6.14436960220337 -0.00027497616247274 -0.000139842901262455
v 5.98020839691162 -0.000256691389949992 -0.000126936007291079
v 7.12054300308228 -0.000345118955010548 -0.000141458789585158
v 6.96911287307739 -0.000250522018177435 -0.000149080515257083
v 6.75032186508179 -0.000246408424573019 -8.81969826878048E-05
v 7.2950701713562 -0.000236605817917734 -0.000105953295133077
v 8.95492649078369 -0.000222501214011572 -0.000134603804326616
v 8.99113750457764 -0.000314273143885657 -0.000134937377879396
v 10.199800491333 -0.000411055516451597 -0.000125964608741924
v 10.9511251449585 -0.000198260124307126 -0.000169358143466525
v 11.8132638931274 -0.000261064589722082 -0.000122937155538239
v 12.7894477844238 -0.000258695392403752 -0.00012091851385776
v 12.1157560348511 -0.000287511560600251 -0.000116108138172422
v 12.0463190078735 -0.000162400188855827 -0.000109186665213201
v 13.5653810501099 -0.000169547653058544 -0.000154221343109384
v 15.9836740493774 -0.000178637870703824 -0.000201714763534255
v 16.7718238830566 -0.000276185193797573 -9.72909911070019E-05
v 17.9092712402344 -0.000140100659336895 -0.000128110652440228
v 19.2462825775146 -0.000222266171476804 -0.000126948027173057
v 20.3417987823486 -0.000236143241636455 -0.000141088807140477
v 24.1401271820068 -0.000191725790500641 -7.96936583356E-05
v 25.1942882537842 -0.000218098663026467 -8.32010919111781E-05
v 26.2518558502197 -0.000259521824773401 -8.76618796610273E-05
v 29.0232677459717 -0.000211076199775562 -0.000135530688567087
v 30.4695053100586 -0.000289162038825452 -6.87507490511052E-05
v 32.911865234375 -0.000212246945011429 -0.000109071341285016
v 33.9653129577637 -0.00021745779667981 -0.000115881142846774
v 34.9403800964355 -0.000251207937253639 -9.40844402066432E-05
v 38.1003303527832 -0.00023883611720521 -0.000107026229670737
v 40.9553184509277 -0.000239241708186455 -0.000127353574498557
v 42.6264495849609 -0.000234018385526724 -0.000103580139693804
v 43.5243301391602 -0.000263574998825788 -0.000141898737638257
v 47.4131546020508 -0.000235336439800449 -0.00010415464930702
v 49.5577049255371 -0.00012917397543788 -0.000106711755506694
v 51.4827156066895 -0.000258160493103787 -0.000123273741337471
v 52.9776763916016 -0.000146107049658895 -0.000117202602268662
v 54.8682823181152 -0.000235256360610947 -0.000117401628813241
v 56.8707237243652 -0.00024493396631442 -0.000114838418085128
v 59.2290496826172 -0.000236796928220429 -0.0001293425593758
v 60.7494850158691 -0.00023498602968175 -0.000115485221613199
v 64.1564102172852 -0.000231620739214122 -6.33887611911632E-05
v 64.886116027832 -0.000337199977366254 -0.000126685525174253
v 66.7805252075195 -0.000192924548173323 -7.16982249286957E-05
v 69.5685882568359 -0.000193445535842329 -0.000115445931442082
v 71.5028762817383 -0.000181783674634062 -0.000120194970804732
v 73.8535537719727 -0.000204325406230055 -0.000116201910714153
v 76.052619934082 -0.000263964699115604 -0.000115313268906903
v 77.9704971313477 -0.000294027413474396 -0.000113661837531254
v 79.3323211669922 -0.00022439107124228 -0.00016547211271245
v 81.6107635498047 -0.000255228282185271 -9.46726941037923E-05
v 83.3145217895508 -0.000209342309972271 -9.49283567024395E-05
v 87.3154144287109 -0.000167066100402735 -8.92055977601558E-05
v 89.2450408935547 -0.000289107265416533 -0.000100267359812278
v 89.6340789794922 -0.000206266864552163 -0.000129533786093816
v 92.6855621337891 -0.000204922907869332 -0.000144286284921691
v 92.9401245117188 -0.000306810165056959 -0.00011011407332262
v 95.5460968017578 -0.000254028709605336 -0.000125246631796472
v 98.4690704345703 -0.000183437281521037 -0.000102729267382529
v 100.814964294434 -0.000158194845425896 -8.19833294372074E-05
v 102.35319519043 -0.000286971742752939 -0.000141871860250831
v 104.37727355957 -0.000285847403574735 -0.000101220080978237
v 107.041633605957 -0.00019574245379772 -0.00010056058090413
v 108.589981079102 -0.000240111301536672 -0.000150559106259607
v 110.400390625 -0.000201517003006302 -0.000124657963169739
v 112.592445373535 -0.000281201704638079 -9.00170634849928E-05
v 114.874267578125 -0.000191434693988413 -7.76299930294044E-05
v 117.818954467773 -0.00034621061058715 -0.00014082390407566
v 119.472465515137 -0.000195823478861712 -0.000140272168209776
v 120.102958679199 -0.000288805342279375 -9.60555044002831E-05
v 120.409355163574 -0.000274295394774526 -0.000117828363727313
v 122.974464416504 -0.000264607224380597 -9.88892134046182E-05
v 125.657722473145 -0.000212959479540586 -0.000137992406962439
v 128.247665405273 -0.000146907594171353 -9.39415767788887E-05
v 129.134414672852 -0.000279180880170316 -0.000169893843121827
v 130.213668823242 -0.000246840238105506 -9.60952675086446E-05
v 131.897506713867 -0.000213951992918737 -0.000141723692649975
v 132.342361450195 -0.000203693780349568 -0.000134603309561498
v 133.820785522461 -0.00022480335610453 -0.000129849096992984
v 134.949340820312 -0.000215144798858091 -0.000104504317278042
v 136.540420532227 -0.000159332164912485 -7.20910757081583E-05
v 136.83479309082 -0.00019148038700223 -0.000137000737595372
v 137.962921142578 -0.000195683693164028 -0.000121130411571357
v 137.315414428711 -0.000255684979492798 -0.000104991355328821
v 138.626571655273 -0.000294375640805811 -9.99574112938717E-05
v 139.449615478516 -0.000272683071671054 -0.00011031638860004
v 141.055480957031 -0.000235227387747727 -0.000105576706118882
v 141.147811889648 -0.000184319011168554 -7.81881099101156E-05
v 141.707534790039 -0.000296540558338165 -9.39640012802556E-05
v 141.973602294922 -0.000236242834944278 -9.60266625043005E-05
v 143.094787597656 -0.000268478092039004 -0.000125470745842904
v 142.934661865234 -0.000259003456449136 -0.000144457168062218
v 143.416152954102 -0.000310418457956985 -0.000133812107378617
v 143.538650512695 -0.000294616824248806 -0.000115431714220904
v 143.886749267578 -0.000218794128159061 -9.04497501323931E-05
v 144.733978271484 -0.000239726985455491 -0.00014551954518538
v 144.198089599609 -0.000220070200157352 -0.000115930015454069
v 144.802719116211 -0.000338072190061212 -0.000131748631247319
v 145.592880249023 -0.0002158138086088 -0.000127099192468449
v 144.729644775391 -0.000124188678455539 -0.000152329754200764
v 145.500473022461 -0.000283242377918214 -0.00014457551878877
v 145.937164306641 -0.00027387824957259 -0.000107367515738588
v 146.90950012207 -0.000227819429710507 -0.000117639763629995
v 147.507217407227 -8.97641439223662E-05 -0.000107993713754695
v 146.770431518555 -0.000291566539090127 -0.000165900128195062
v 146.305328369141 -0.000306574715068564 -0.000105905011878349
v 147.102203369141 -0.000207663004403003 -6.09423586865887E-05
v 147.26838684082 -0.000185571625479497 -0.00013899382611271
v 147.029647827148 -0.000267339812126011 -0.000134398607769981
v 147.415313720703 -0.000155222543980926 -0.000111796442070045
v 147.296417236328 -0.00015176554734353 -4.40494150097948E-05
v 147.675048828125 -0.000231264639296569 -0.00014307867968455
v 147.594055175781 -0.00019810488447547 -0.000150443549500778
v 147.622909545898 -0.000226391086471267 -0.000101905214251019
v 147.942901611328 -0.000153208384290338 -9.10644375835545E-05
v 147.577743530273 -0.000280028063571081 -0.000131190041429363
v 147.804077148438 -0.000169648745213635 -7.61714181862772E-05
v 147.696807861328 -0.000229184806812555 -7.44749922887422E-05
v 148.081558227539 -0.000300051964586601 -0.000113487105409149
v 148.001022338867 -0.000319467595545575 -9.72148045548238E-05
v 148.325836181641 -0.000231987054576166 -0.000111095527245197
v 147.923049926758 -0.000133819412440062 -7.51830157241784E-05
v 148.07389831543 -0.000302358093904331 -0.000137416471261531
v 148.353775024414 -0.000211796825169586 -8.32506993901916E-05
v 148.140167236328 -0.000314568402245641 -0.000112466477730777
v 148.235748291016 -0.000272061733994633 -0.000147242681123316
v 148.387237548828 -0.000213320861803368 -0.000156770402099937
v 148.264953613281 -0.0002243993076263 -0.000113841590064112
v 148.447067260742 -0.000252535101026297 -6.56683841953054E-05
v 148.701217651367 -0.000181590003194287 -0.000148374369018711
v 148.505584716797 -0.00017060233221855 -0.000103933780337684
v 148.308349609375 -0.000294522586045787 -0.000154366251081228
v 148.552505493164 -0.00021295333863236 -0.000133507201098837
v 148.423751831055 -0.000218604123801924 -0.000104681661468931
v 148.74446105957 -0.000361754355253652 -0.000110118118755054
v 148.802383422852 -0.000210347629035823 -0.000123925012303516
v 148.843658447266 -0.000204064650461078 -8.91105664777569E-05
v 148.926147460938 -0.00019729153427761 -8.37186453281902E-05
v 148.644790649414 -0.000159170391270891 -0.000144529272802174
v 148.885955810547 -0.000195584332686849 -0.000104501297755633
v 149.187408447266 -0.000175921202753671 -0.00010727428161772
v 149.183090209961 -0.000189107013284229 -0.000177521505975164
v 148.928512573242 -0.000231540849199519 -0.000103222620964516
v 149.111404418945 -0.000191626197192818 -0.000100139412097633
v 149.092376708984 -0.000263304653344676 -9.68156746239401E-05
v 149.229141235352 -0.000242596070165746 -7.81087219365872E-05
v 149.134567260742 -0.000213677558349445 -9.59779208642431E-05
v 149.259735107422 -0.000259473832556978 -8.63287423271686E-05
v 149.467803955078 -0.000185376309673302 -9.27993387449533E-05
v 149.175003051758 -0.000163914461154491 -0.000113622641947586
v 149.45719909668 -0.000242809270275757 -9.40355603233911E-05
v 149.366470336914 -0.000215694235521369 -0.000129209889564663
v 149.249038696289 -0.000183622993063182 -0.00011904769053217
v 149.485977172852 -0.00020039506489411 -0.000104856699181255
v 149.345413208008 -0.000273518322501332 -0.000127330029499717
v 149.48014831543 -0.000263320980593562 -9.09685913939029E-05
v 149.556015014648 -3.68656583304983E-05 -8.04367518867366E-05
v 149.334213256836 -0.000304747110931203 -0.000119152318802662
v 149.566955566406 -0.000308665272314101 -0.000105846324004233
v 149.57453918457 -0.000209701393032447 -9.01081948541105E-05
v 149.407745361328 -0.000207783436053433 -9.83386562438682E-05
v 149.743026733398 -0.000300207262625918 -0.000134221976622939
v 149.679306030273 -0.000242932015680708 -0.000129217907669954
v 149.592315673828 -0.000208695520996116 -1.80908609763719E-05
v 149.677841186523 -0.000272395176580176 -0.000149546685861424
v 149.772644042969 -0.000215329506318085 -0.000151469430420548
v 150.077499389648 -0.000205287418793887 -0.000102905491075944
v 149.861679077148 -0.000211160440812819 -0.000101964309578761
v 149.832046508789 -0.000130390893900767 -0.000147318889503367
v 149.967758178711 -0.000219700072193518 -0.00011921255645575
v 150.046340942383 -0.000194030930288136 -0.000102411897387356
v 150.047439575195 -0.000187158919288777 -0.00013367083738558
v 150.069808959961 -0.000192679421161301 -0.000105667349998839
v 149.814208984375 -0.000216541084228083 -0.000100739453046117
v 148.56315612793 -0.000250051059992984 -0.000103621488960925
v 150.535690307617 -0.000250778422923759 -6.39859281363897E-05
v 146.383636474609 -0.000199127680389211 -0.000107812084024772
v 134.45881652832 -0.000220956004341133 -9.52156115090474E-05
v 150.641082763672 -0.000266256713075563 -9.18433652259409E-05
v 0.812174618244171 -0.000202934112166986 -9.45524079725146E-05
v 1.0498366355896 -0.0002125828032149 -6.26901019131765E-05
v 1.80229806900024 -0.000191189799807034 -7.23914563423023E-05
v 1.61869835853577 -0.000220842062844895 -7.26020443835296E-05
v 73.7438812255859 -0.000268577365204692 -5.76488018850796E-05
v 0.731767117977142 -0.000106526400486473 -6.39682475593872E-05
v 2.68878507614136 -0.000319498154567555 -7.70831102272496E-05
v 1.02891707420349 -0.000185501572559588 -5.87507929594722E-05
v 148.585556030273 -0.000207853910978884 -6.15441531408578E-05
v 151.124328613281 -0.000150000545545481 -5.53507343283854E-05
v 1.19950699806213 -0.000300967978546396 -6.39352656435221E-05
v 87.5048065185547 -0.000198731373529881 -7.77549503254704E-05
v 148.84033203125 -0.000224881106987596 -3.08401067741215E-05
v 2.79054164886475 -0.000279541040072218 -9.24968771869317E-05
v 6.134033203125 -0.000211289938306436 -5.37039522896521E-05
v 2.63717126846313 -0.000213267412618734 -6.01750980422366E-05
v 0.600939691066742 -8.54071404319257E-05 -4.34261637565214E-05
v 151.105178833008 -0.000202794690267183 -8.71322627062909E-05
v 70.3713684082031 -0.000248969125095755 -5.75340709474403E-05
v 1.7827844619751 -0.000281869637547061 -6.51045993436128E-05
v 150.046325683594 -0.000231280035222881 -8.09290140750818E-05
v 148.28271484375 -0.000105358834844083 -6.1169863329269E-05
v 0.735963523387909 -0.000217600347241387 -6.17423502262682E-05
v 92.8289184570312 -0.000207954159122892 -2.47259395109722E-05
v 150.969924926758 -0.00021112323156558 -5.87104259466287E-05
v 59.0072441101074 -0.000251940538873896 -7.20782336429693E-05
v 1.62509799003601 -0.000317407422699034 -8.16031460999511E-05
v 150.639587402344 -0.000195570508367382 -6.695713091176E-05
v 150.166275024414 -0.000212612460018136 -3.05020930682076E-05
v 151.274948120117 -4.34210087405518E-05 -6.29967616987415E-05
v 148.381896972656 -0.000174522370798513 -6.02041254751384E-05
v 151.267623901367 -0.000206775133847259 -6.11215946264565E-05
v 2.25626063346863 -0.000232630074606277 -7.29384846636094E-05
v 2.84682488441467 -0.000266657763859257 -9.18915902730078E-05
v 25.6692810058594 -0.000212322047445923 -5.66189773962833E-05
v 4.43771171569824 -0.000168376369401813 -6.15527387708426E-05
v 143.545486450195 -0.000201348069822416 -1.25706737890141E-05
v 0.728357791900635 -0.000209031291888095 -5.05254029121716E-05
v 138.854522705078 -0.00020469403534662 -5.98627957515419E-05
v 79.2175140380859 -0.00020878815848846 -6.73479735269211E-05
v 0.570940017700195 -0.000208992292755283 -7.71992199588567E-05
v 147.211456298828 -0.00019189745944459 -6.1468657804653E-05
v 0.561943054199219 -0.000264472240814939 -4.87460893054958E-05
v 118.444267272949 -0.000299987063044682 -5.82916218263563E-05
v 38.4432182312012 -0.000237719490542077 -6.05159621045459E-05
v 151.200378417969 -0.000225344323553145 -5.9260299167363E-05
v 148.975845336914 -0.000242661815718748 -6.04455781285651E-05
v 50.7153053283691 -0.000243250295170583 -6.05046698183287E-05
v 149.043579101562 -0.000178808870259672 -5.5555603466928E-05
v 145.818832397461 -0.000272762204986066 -7.65664881328121E-05
v 0.792538225650787 -0.000175648077856749 -8.68482675286941E-05
v 0.801815330982208 -0.000246978597715497 -6.88213913235813E-05
v 61.0508804321289 -0.000224788498599082 -6.52386952424422E-05
v 151.251007080078 -0.000176666246261448 -7.02522302162834E-05
v 122.538192749023 -0.000202223469386809 -7.04225967638195E-05
v 0.740590333938599 -0.000232878417591564 -5.1766364776995E-05
v 151.16960144043 -0.000178632733877748 -7.89664918556809E-05
v 12.2849702835083 -0.000268411444267258 -5.08513039676473E-05
v 0.602119326591492 -0.000240415640291758 -7.15019705239683E-05
v 3.28004813194275 -0.000249775854172185 -6.50777801638469E-05
v 150.187911987305 -0.000275796221103519 -5.11460639245342E-05
v 148.648818969727 -0.00023736446746625 -5.85450543439947E-05
v 0.626945912837982 -0.000286635011434555 -6.74198672641069E-05
v 73.6430206298828 -0.000176183893927373 -5.17153785040136E-05
v 0.779072761535645 -0.000246462586801499 -7.77069217292592E-05
v 0.894936978816986 -0.000178017246071249 -6.96019415045157E-05
v 1.31013011932373 -0.0002688595559448 -7.23117918823846E-05
v 150.797668457031 -0.000210808997508138 -7.98448600107804E-05
v 1.54022371768951 -0.000233576036407612 -6.87186038703658E-05
v 16.7623081207275 -0.000208146317163482 -8.29827695270069E-05
v 1.8587132692337 -0.000173945591086522 -5.10064237460028E-05
v 150.018356323242 -0.000226504183956422 -7.13525805622339E-05
v 117.985656738281 -0.000161054558702745 -5.15371903020423E-05
v 82.2647399902344 -0.000238581764278933 -7.78366520535201E-05
v 3.45859336853027 -0.000299490784527734 -6.10306233284064E-05
v 2.0870885848999 -0.000271334312856197 -6.76218332955614E-05
v 146.932556152344 -0.000211255173780955 -6.02597610850353E-05
v 4.04999017715454 -0.000213350242120214 -5.0358419684926E-05
v 136.06916809082 -0.000226631353143603 -6.55744879622944E-05
v 125.775596618652 -0.000270632735919207 -4.66263736598194E-05
v 2.60230565071106 -0.000162535681738518 -6.90710221533664E-05
v 23.6273574829102 -8.3852733951062E-05 -8.67045964696445E-05
v 69.5964813232422 -0.000275239202892408 -7.85531083238311E-05
v 103.667129516602 -0.000255976483458653 -6.11597861279733E-05
v 40.1095390319824 -0.00030433019855991 -6.17663245066069E-05
v 147.535293579102 -0.000261891254922375 -6.56113043078221E-05
v 26.2853050231934 -0.000216012063901871 -7.83499999670312E-05
v 137.245895385742 -0.000286710856016725 -4.70551749458537E-05
v 2.22330331802368 -0.000184216230991296 -2.4275930627482E-05
v 1.82739543914795 -0.000185352546395734 -7.96836029621772E-05
v 90.6863174438477 -0.000231926300330088 -7.41069088689983E-05
v 18.773998260498 -0.000162867421749979 -8.81056330399588E-05
v 3.12232208251953 -0.000194897802430205 -7.58192763896659E-05
v 2.44293713569641 -0.000267579423962161 -6.25369430053979E-05
v 1.14740896224976 -0.000198782305233181 -8.30047138151713E-05
v 138.236785888672 -0.000189913305803202 -5.33318379893899E-05
v 117.047065734863 -0.000263106980128214 -5.3660805861E-05
v 116.679702758789 -0.000235200117458589 -6.71442248858511E-05
v 1.66857707500458 -0.000193823711015284 -4.71512139483821E-05
v 142.386108398438 -0.000242492271354422 -5.64242254768033E-05
v 6.78412008285522 -4.55970985058229E-05 -7.74660366005264E-05
v 102.661918640137 -0.000183801705134101 -5.75488156755455E-05
v 5.91940546035767 -0.000312983407638967 -5.49811775272246E-05
v 138.370819091797 -0.000234396444284357 -7.61712362873368E-05
v 29.7000980377197 -0.000248249241849408 -6.80920129525475E-05
v 2.27899122238159 -0.000218047600355931 -5.61132692382671E-05
v 117.861228942871 -0.000292984972475097 -7.02031466062181E-05
v 2.53659391403198 -0.000200981899979524 -1.3200666217017E-05
v 1.85303032398224 -0.000212245882721618 -5.32118247065227E-05
v 113.999710083008 -0.000294619414489716 -9.0610803454183E-05
v 11.113374710083 -0.000228367076488212 -6.78593496559188E-05
v 129.794448852539 -0.000274270365480334 -7.1869813837111E-05
v 2.34938335418701 -0.000278102816082537 -6.31262446404435E-05
v 128.163757324219 -0.000142581280670129 -8.48211129778065E-05
v 4.09873867034912 -0.000217894179513678 -5.81856111239176E-05
v 125.559234619141 -0.000235272847930901 -6.14466116530821E-05
v 41.1698837280273 -0.00027241202769801 -8.52942976052873E-05
v 4.88710308074951 -0.00016427414084319 -6.61138037685305E-05
v 1.25020682811737 -0.000216157015529461 -7.94031147961505E-05
v 6.9517183303833 -0.000145578305819072 -8.05126328486949E-05
v 4.8907732963562 -0.000257678533671424 -4.12782392231748E-05
v 1.43864548206329 -0.000182788615347818 -6.30818321951665E-05
v 6.55009746551514 -0.000242183974478394 -6.8113069573883E-05
v 4.04767942428589 -0.000209055855521001 -7.88651086622849E-05
v 23.5860233306885 -0.000263760157395154 -4.75584711239208E-05
v 1.31853401660919 -0.000170677914866246 -6.25789107289165E-05
v 7.43259477615356 -0.000191781713510863 -4.21459008066449E-05
v 109.258804321289 -0.000236899286392145 -7.45996658224612E-05
v 1.5783097743988 -0.000217127482756041 -5.29185272171162E-05
v 7.74255752563477 -0.000294117489829659 -7.01138924341649E-05
v 86.8015594482422 -0.0001823066995712 -6.05230779910926E-05
v 2.38688802719116 -0.000166675337823108 -7.63603311497718E-05
v 88.4934387207031 -0.000180704999365844 -4.94124069518875E-05
v 4.35047626495361 -0.000223361828830093 -5.55220940441359E-05
v 3.38556742668152 -0.000188498597708531 -6.85839331708848E-05
v 1.49738872051239 -0.000248893367825076 -6.28598645562306E-05
v 2.36747074127197 -0.000149694315041415 -8.5148996731732E-05
v 5.81285238265991 -0.000180702641955577 -5.2779014367843E-05
v 84.1880569458008 -0.000376661017071456 -4.82536306662951E-05
v 8.97684288024902 -0.000197277520783246 -5.23153103131335E-05
v 1.97134268283844 -0.000251001882134005 -6.46647531539202E-05
v 88.108039855957 -0.00025355294928886 -5.45716138731223E-05
v 18.6628017425537 -0.000174298256752081 -7.20562966307625E-05
v 5.7677640914917 -0.000227645097766072 -4.33375098509714E-05
v 1.26401364803314 -0.000220611516851932 -5.23146263731178E-05
v 3.50714325904846 -0.000211402919376269 -0.00010904589726124
v 1.68287897109985 -0.000265247450442985 -5.71131713513751E-05
v 2.59666109085083 -0.000191387196537107 -7.26667276467197E-05
v 80.1572494506836 -0.000128741608932614 -7.34052882762626E-05
v 1.84728610515594 -0.000292201002594084 -5.04605195601471E-05
v 77.4071655273438 -0.000232637146837078 -6.59047873341478E-05
v 44.1147689819336 -0.000262689194642007 -6.38685160083696E-05
v 23.6244087219238 -0.00022215984063223 -6.12025614827871E-05
v 1.8629674911499 -0.00016928267723415 -7.67909223213792E-05
v 3.4416344165802 -0.00025526134413667 -5.54078796994872E-05
v 1.22970771789551 -0.000267242954578251 -3.72715585399419E-05
v 3.36224627494812 -0.00027065651374869 -8.45941540319473E-05
v 1.69016706943512 -0.000225517243961804 -6.73500253469683E-05
v 1.51221084594727 -0.00024623645003885 -7.60502880439162E-05
v 63.8130798339844 -0.000143542914884165 -6.43167659291066E-05
v 2.87777709960938 -0.000240504392422736 -4.90084748889785E-05
v 9.00950336456299 -0.000200828566448763 -7.38998787710443E-05
v 2.8038535118103 -0.000232199527090415 -7.73686333559453E-05
v 1.56841552257538 -0.000273790530627593 -7.83568757469766E-05
v 16.248987197876 -0.000279722706181929 -6.52887611067854E-05
v 2.92713379859924 -0.000252099329372868 -7.12871042196639E-05
v 1.70484483242035 -0.000238441265537404 -4.15566391893663E-05
v 58.8758850097656 -0.00015866695321165 -6.96276329108514E-05
v 1.34461057186127 -0.000224873467232101 -5.81412205065135E-05
v 7.13707160949707 -0.000290750118438154 -6.72233218210749E-05
v 2.33631539344788 -0.000237125103012659 -7.92641949374229E-05
v 55.1831932067871 -0.000223898052354343 -8.09816046967171E-05
v 60.4971122741699 -0.000186998644494452 -7.29844468878582E-05
v 1.56725227832794 -7.53493441152386E-05 -6.90303495503031E-05
v 53.0842704772949 -0.000220158544834703 -4.59351504105143E-05
v 11.0295391082764 -0.000230392615776509 -6.51023801765405E-05
v 2.07107257843018 -0.000177248031832278 -8.41741202748381E-05
v 12.7353401184082 -0.000221322596189566 -6.86493076500483E-05
v 1.14541900157928 -0.000236730964388698 -6.48199857096188E-05
v 2.6752016544342 -0.000200271388166584 -5.41373665328138E-05
v 3.25203347206116 -0.000268598552793264 -2.18141412915429E-05
v 49.2675895690918 -0.000221694761421531 -6.37373814242892E-05
v 45.1889762878418 -0.000242347916355357 -6.67002095724456E-05
v 4.37666416168213 -0.000232736929319799 -5.13144987053238E-05
v 2.43085050582886 -0.000176105517311953 -6.40743819531053E-05
v 2.76364421844482 -0.000250911485636607 -6.85352060827427E-05
v 3.41745042800903 -0.000176973422640003 -5.7979912526207E-05
v 31.5660381317139 -0.000275588710792363 -7.77610912336968E-05
v 1.06421446800232 -0.000245602626819164 -6.41821243334562E-05
v 18.4472255706787 -0.000223643379285932 -7.01613535056822E-05
v 44.3002471923828 -0.000314831122523174 -6.73789108986966E-05
v 48.1997528076172 -0.000139678522828035 -5.09837300342042E-05
v 4.75498247146606 -0.000178780901478603 -7.26405633031391E-05
v 33.9241256713867 -0.000214635714655742 -5.12349979544524E-05
v 0.913062334060669 -0.00020543733262457 -7.97847824287601E-05
v 1.05516839027405 -0.000219781519263051 -7.11036118445918E-05
v 8.33566474914551 -0.000254277925705537 -6.47462657070719E-05
v 4.12672328948975 -0.000170934115885757 -9.11457318579778E-05
v 1.07439363002777 -0.000213212711969391 -4.04378733946942E-05
v 44.3191299438477 -0.000264960952335969 -5.17582775501069E-05
v 3.42348003387451 -0.000272123812464997 -6.21384824626148E-05
v 42.4980697631836 -0.000300229614367709 -5.94754892517813E-05
v 2.99178290367126 -0.000202477385755628 -6.36282275081612E-05
v 0.919584810733795 -0.000155108180479147 -7.36151705496013E-05
v 1.97805082798004 -0.00020210056391079 -4.94865744258277E-05
v 1.32731115818024 -0.000249522388912737 -6.17265104665421E-05
v 1.13441729545593 -0.000278503110166639 -7.67079691286199E-05
v 27.7234363555908 -0.000320959050441161 -7.87816752563231E-05
v 25.5003204345703 -0.000198997382540256 -8.69184950715862E-05
v 0.939163982868195 -0.000145140395034105 -5.8618559705792E-05
v 0.862371802330017 -0.000227034732233733 -4.49048602604307E-05
v 0.887208640575409 -0.000196852954104543 -5.85094712732825E-05
v 1.5841543674469 -0.000153823726577684 -7.22384065738879E-05
v 32.3153953552246 -0.000169818129506893 -8.0628517025616E-05
v 32.1265716552734 -0.000211894221138209 -9.29198067751713E-05
v 40.1366958618164 -0.000253018079092726 -5.76110760448501E-05
v 1.22614169120789 -0.000231724683544599 -4.20191172452178E-05
v 1.08415079116821 -0.00030050752684474 -6.57280761515722E-05
v 2.27657103538513 -0.000221474358113483 -5.69902549614199E-05
v 26.1070232391357 -0.000186638746527024 -4.45330042566638E-05
v 1.44923269748688 -0.00020190721261315 -4.91634928039275E-05
v 6.68301677703857 -0.000169973893207498 -6.13447991781868E-05
v 31.3298721313477 -0.00019638889352791 -7.32504340703599E-05
v 30.3475685119629 -0.000152822452946566 -6.70858498779126E-05
v 0.970639407634735 -0.000255450169788674 -8.69989453349262E-05
v 31.1630802154541 -0.000231451645959169 -6.41183141851798E-05
v 37.5791358947754 -0.00030007743043825 -5.40331711817998E-05
v 11.8097152709961 -0.000197868095710874 -5.84534973313566E-05
v 17.1182460784912 -0.00016955348837655 -4.92085819132626E-05
v 40.0064430236816 -0.000310666626319289 -5.6855904404074E-05
v 3.1141254901886 -0.000227951401029713 -4.4243126467336E-05
v 0.901678562164307 -0.000148168444866315 -7.39545357646421E-05
v 1.87062585353851 -0.000299836363410577 -6.70068038743921E-05
v 1.02033662796021 -0.000166392550454475 -8.68744391482323E-05
v 41.7543601989746 -0.000179956667125225 -5.72841418033931E-05
v 1.75920748710632 -0.000267632509348914 -4.90868769702502E-05
v 13.754581451416 -0.000216348285903223 -8.99400765774772E-05
v 1.08394455909729 -0.000209638106753118 -6.59934594295919E-05
v 18.3653411865234 -0.000168161117471755 -4.28957609983627E-05
v 55.5765838623047 -0.000270428659860045 -8.68046408868395E-05
v 2.63769769668579 -0.000227576252655126 -4.81717652291991E-05
v 58.2003135681152 -0.000173991429619491 -5.20986686751712E-05
v 111.766616821289 -0.000295911188004538 -7.74814106989652E-05
v 0.900812983512878 -0.000175614884938113 -6.26342807663605E-05
v 1.49356257915497 -0.000288549141259864 -6.06916437391192E-05
v 55.8198432922363 -0.00023886957205832 -4.86837743665092E-05
v 89.0529861450195 -0.000196299879462458 -7.82909119152464E-05
v 0.775626540184021 -0.000261762790614739 -6.58848584862426E-05
v 137.002014160156 -0.000158862065291032 -5.03716910316143E-05
v 0.81123948097229 -0.000220901914872229 -8.56682745506987E-05
v 0.815164744853973 -0.000184056101716124 -5.08416887896601E-05
v 110.517707824707 -0.000181515017175116 -8.35369210108183E-05
v 42.6562232971191 -0.000232517864787951 -6.9154346419964E-05
v 0.758745908737183 -0.000198490262846462 -5.68301329622045E-05
v 106.982269287109 -0.000220435482333414 -7.57820889702998E-05
v 79.9069519042969 -0.000230780642596073 -4.59916336694732E-05
v 27.7505702972412 -0.000212309023481794 -6.39525969745591E-05
v 1.00618863105774 -0.000143867757287808 -5.32854792254511E-05
v 0.698423504829407 -0.000217146909562871 -5.25498144270387E-05
v 6.79178428649902 -0.00027534767286852 -6.73154863761738E-05
v 3.52203249931335 -0.000233675105846487 -5.74642690480687E-05
v 126.85230255127 -0.000210021273232996 -6.38175552012399E-05
v 102.727043151855 -0.000207140808925033 -6.68125503580086E-05
v 0.549945294857025 -0.000301710533676669 -6.14648888586089E-05
v 33.3284645080566 -0.000236792373470962 -4.16506845795084E-05
v 0.580309331417084 -0.000104312450275756 -6.28654888714664E-05
v 26.1885929107666 -0.00027995283016935 -7.97150059952401E-05
v 0.52534282207489 -0.000220098372665234 -6.76505151204765E-05
v 144.200408935547 -0.000198754671146162 -6.08025766268838E-05
v 2.24799633026123 -0.000271494587650523 -5.99686572968494E-05
v 71.0702362060547 -0.000248132972046733 -8.7347230874002E-05
v 0.884151577949524 -0.00020170584321022 -6.85529885231517E-05
v 74.6579971313477 -0.00013599285739474 -3.01991549349623E-05
v 146.651870727539 -0.000201968607143499 -8.10482306405902E-05
v 0.473017901182175 -0.000209335805266164 -6.37199555058032E-05
v 0.999191403388977 -0.00024119860609062 -5.75408157601487E-05
v 150.747085571289 -0.000195689048268832 -7.85995071055368E-05
v 146.145111083984 -0.000218626475543715 -7.18361625331454E-05
v 150.510498046875 -0.000199842645088211 -5.8395198720973E-05
v 1.72531175613403 -0.000155318179167807 -3.93708432966378E-05
v 1.1694860458374 -0.000167909573065117 -5.84712688578293E-05
v 129.52587890625 -0.000259532738709822 -6.0604124882957E-05
v 3.10712218284607 -0.000278417021036148 -6.9828616688028E-05
v 144.585815429688 -0.000280832638964057 -5.66532980883494E-05
v 1.2521493434906 -0.00022569129941985 -6.3293831772171E-05
v 144.743728637695 -0.000236078762100078 -5.78557919652667E-05
v 151.307388305664 -0.000201789778657258 -4.4965654524276E-05
v 151.4736328125 -0.000227936849114485 -4.86109493067488E-05
v 151.416976928711 -0.000126819009892642 -7.51364786992781E-05
v 55.9054756164551 -0.000193144005606882 -8.06035968707874E-05
v 151.325942993164 -0.000234565392020158 -8.13029400887899E-05
v 0.613478183746338 -0.000244775204919279 -6.53391471132636E-05
v 0.813950538635254 -0.000216065032873303 -6.83463949826546E-05
v 0.6153923869133 -0.000249307078775018 -5.84195004194044E-05
v 151.457458496094 -0.000184471951797605 -6.59892539260909E-05
v 150.893249511719 -0.00018633616855368 -3.67149550584145E-05
v 150.871948242188 -0.000277173559879884 -5.59164909645915E-05
v 0.572948753833771 -0.000240833483985625 -6.79082586430013E-05
v 2.28732013702393 -0.000321557658025995 -7.08640582161024E-05
v 0.915676951408386 -0.000167949401657097 -6.25522807240486E-05
v 151.53547668457 -0.00021162920165807 -7.21760734450072E-05
v 150.847915649414 -0.000206864380743355 -5.34058708581142E-05
v 0.596205294132233 -0.000230894031119533 -5.39455759280827E-05
v 150.164047241211 -0.000237791173276491 -8.02436115918681E-05
v 17.1552810668945 -0.000251709978329018 -6.97229115758091E-05
v 0.696799993515015 -0.000218234796193428 -9.30931055336259E-05
v 8.12456607818604 -0.000237342421314679 -4.86224816995673E-05
v 109.28882598877 -0.000225262221647426 -6.12680814811029E-05
v 0.658833503723145 -0.000219015753827989 -5.9888629039051E-05
v 0.720253348350525 -0.000247413729084656 -6.68453722028062E-05
v 0.745647192001343 -0.000302096712402999 -6.8842142354697E-05
v 32.3791046142578 -0.00021188693062868 -7.28717350284569E-05
v 151.294708251953 -0.000196620007045567 -6.31804432487115E-05
v 0.712630212306976 -0.000213540406548418 -6.87122228555381E-05
v 151.064926147461 -0.000234272898524068 -6.52149246889167E-05
v 151.257247924805 -0.000261271052295342 -6.34065363556147E-05
v 151.299240112305 -0.000220403555431403 -7.16279391781427E-05
v 64.6874694824219 -0.000153581830090843 -8.74590332387015E-05
v 151.114868164062 -0.000264276168309152 -6.13426891504787E-05
v 2.42829203605652 -0.000213401144719683 -5.69228177482728E-05
v 0.895012021064758 -0.000152896551298909 -6.1821388953831E-05
v 150.41064453125 -0.000142003947985359 -6.78235737723298E-05
v 150.083572387695 -0.00026110399630852 -7.56397203076631E-05
v 1.12021243572235 -0.000155068686581217 -6.38083074591123E-05
v 150.736907958984 -0.000218867120565847 -4.44629731646273E-05
v 82.3264083862305 -0.000181417533895001 -7.65097211115062E-05
v 150.050979614258 -0.000235226674703881 -6.17810655967332E-05
v 150.374588012695 -0.00026676818379201 -4.42645796283614E-05
v 150.968719482422 -0.000242146619712003 -4.11110995628405E-05
v 109.877029418945 -0.000269850686891004 -7.55913642933592E-05
v 151.018005371094 -0.000284390087472275 -4.489342609304E-05
v 142.357299804688 -0.000168246988323517 -6.33635063422844E-05
v 150.664260864258 -0.000202119437744841 -5.25215909874532E-05
v 112.050804138184 -0.000256773928413168 -6.80997036397457E-05
v 30.3729095458984 -0.000257410254562274 -7.72311832406558E-05
v 149.320327758789 -0.000240293549722992 -7.01030730851926E-05
v 150.001083374023 -0.000323072250466794 -7.8123586717993E-05
v 149.125701904297 -0.000234518287470564 -8.233284461312E-05
v 40.480827331543 -0.000230667486903258 -4.87086363136768E-05
v 99.5506896972656 -0.000221491092815995 -5.85149355174508E-05
v 143.471343994141 -0.000208287514396943 -7.43377822800539E-05
v 15.9884033203125 -0.000294196914182976 -7.45220022508875E-05
v 101.084281921387 -0.000384796672733501 -6.9566594902426E-05
v 24.365758895874 -0.000185594966751523 -9.35315911192447E-05
v 5.10663414001465 -0.000244387396378443 -6.78946234984323E-05
v 5.38450908660889 -0.000242169553530402 -6.67797867208719E-05
v 1.31424593925476 -0.000269144889898598 -6.41231599729508E-05
v 1.71680676937103 -0.000152025808347389 -6.0300633776933E-05
v 146.483459472656 -0.000158716706209816 -8.51719814818352E-05
v 1.0794552564621 -0.000167226215125993 -0.0001114012193284
v 142.885055541992 -0.000258542073424906 -5.37309933861252E-05
v 1.42576360702515 -0.000131150824017823 -7.07517974660732E-05
v 1.49899733066559 -0.000208067474886775 -7.01097087585367E-05
v 67.4068450927734 -0.000221058056922629 -7.79192560003139E-05
v 1.27360832691193 -0.000179478054633364 -4.40124968008604E-05
v 129.189437866211 -0.000204166193725541 -4.59495495306328E-05
v 56.103328704834 -0.000242943191551603 -4.84131160192192E-05
v 124.623817443848 -0.000197592336917296 -7.48496677260846E-05
v 0.800650417804718 -0.000270689924946055 -3.7969042750774E-05
v 2.00638818740845 -0.000198688270756975 -6.02369364059996E-05
v 1.24557113647461 -0.000203566276468337 -6.39977952232584E-05
v 2.20046305656433 -0.000235160390730016 -5.19601053383667E-05
v 0.906108677387238 -0.000223578899749555 -5.91074858675711E-05
v 13.9337158203125 -0.000223958588321693 -7.03336845617741E-05
v 0.965721428394318 -0.000219068926526234 -5.72043136344291E-05
v 0.742128372192383 -0.000246737443376333 -7.83665600465611E-05
v 151.469039916992 -0.000220302783418447 -5.7521592680132E-05
v 1.94970393180847 -0.000120922151836567 -5.89338014833629E-05
v 112.146018981934 -0.000241668793023564 -6.80805169395171E-05
v 1.07382154464722 -0.000136773509439081 -6.47275955998339E-05
v 121.627952575684 -0.000220227826503105 -6.48375134915113E-05
v 0.675787806510925 -0.000229287223191932 -6.34219322819263E-05
v 150.183197021484 -0.000221669964957982 -7.1432143158745E-05
v 0.855695307254791 -0.000219974768697284 -6.3779138145037E-05
v 148.113082885742 -0.000216824468225241 -3.50077752955258E-05
v 151.491058349609 -0.000315659155603498 -6.99647353030741E-05
v 1.5323578119278 -0.000180600240128115 -3.95968490920495E-05
v 151.413177490234 -0.000181087962118909 -6.37574412394315E-05
v 0.777301490306854 -0.000170171057106927 -6.63801984046586E-05
v 54.9640274047852 -0.000191272789379582 -6.41749502392486E-05
v 1.01778280735016 -0.000247102230787277 -6.36841723462567E-05
v 118.562477111816 -0.000275244528893381 -6.27721383352764E-05
v 151.276382446289 -0.000210056634387001 -9.13854455575347E-05
v 146.193252563477 -0.000238923923461698 -5.22849841217976E-05
v 74.1992492675781 -0.000195969187188894 -5.24261777172796E-05
v 1.11763203144073 -0.00015639366756659 -4.92656690767035E-05
v 147.97917175293 -0.000270638673100621 -5.53747595404275E-05
v 1.19024419784546 -0.000193090221728198 -7.15377536835149E-05
v 151.397186279297 -0.000191832121345215 -7.96851381892338E-05
v 151.256607055664 -0.000287210685200989 -6.08128066232894E-05
v 1.26300585269928 -0.000237800981267355 -6.91700770403259E-05
v 147.975997924805 -0.00017171903164126 -5.67343995498959E-05
v 149.681060791016 -0.000148089122376405 -4.52770182164386E-05
v 150.673522949219 -0.000268639560090378 -7.83517170930281E-05
v 151.134826660156 -0.000267587049165741 -5.59009167773183E-05
v 148.772048950195 -0.000183238109457307 -5.55366896151099E-05
v 0.805681705474854 -0.000224772637011483 -8.31494253361598E-05
v 123.628532409668 -0.000188643782166764 -6.88449799781665E-05
v 149.792526245117 -0.000263238092884421 -4.97138134960551E-05
v 150.163177490234 -0.000179205540916882 -4.28727944381535E-05
v 148.956832885742 -0.000324094173265621 -7.77729583205655E-05
v 62.1033554077148 -0.000183313983143307 -7.74682484916411E-05
v 141.386642456055 -0.000270356045803055 -5.30486649950035E-05
v 4.09340047836304 -0.000256772967986763 -6.50731890345924E-05
v 1.25226676464081 -0.000247703719651327 -5.46136470802594E-05
v 0.704679846763611 -0.000199355315999128 -7.62092022341676E-05
v 19.9373626708984 -0.000137522918521427 -5.18812121299561E-05
v 150.076614379883 -0.000261346402112395 -9.38274461077526E-05
v 0.824945390224457 -0.000231071724556386 -5.30706311110407E-05
v 0.722257733345032 -0.000200284412130713 -7.8269891673699E-05
v 6.44886207580566 -0.000190681515960023 -7.4337498517707E-05
v 139.061264038086 -0.000210442580282688 -7.17118964530528E-05
v 0.94914436340332 -0.000201401024241932 -5.77147038711701E-05
v 0.747175872325897 -0.000149153798702173 -3.98138108721469E-05
v 0.737972259521484 -0.000179248323547654 -7.56615336285904E-05
v 1.59163951873779 -0.000183183117769659 -6.68968204990961E-05
v 123.731857299805 -0.000239351458731107 -5.798368511023E-05
v 130.41862487793 -0.000275570462690666 -5.52035817236174E-05
v 1.04753470420837 -0.000255263672443107 -6.09245398663916E-05
v 0.751927673816681 -0.000220200716285035 -5.83069486310706E-05
v 0.802138984203339 -0.000172544430824928 -4.31810258305632E-05
v 95.1956024169922 -0.000277597107924521 -5.18935958098155E-05
v 101.343788146973 -0.000221151276491582 -5.30327451997437E-05
v 0.845771074295044 -0.000251327292062342 -6.92938483553007E-05
v 2.84634804725647 -0.000242457928834483 -7.97795073594898E-05
v 0.832976818084717 -0.000290588446659967 -7.39005554351024E-05
v 1.32661056518555 -0.00027579625020735 -6.37495904811658E-05
v 0.744243502616882 -0.000204817231860943 -4.99527741339989E-05
v 0.819007754325867 -0.000224412870011292 -8.03662333055399E-05
v 0.96687924861908 -0.000206011784030125 -6.40247817500494E-05
v 80.3968200683594 -0.000316475663566962 -7.27609440218657E-05
v 93.9297561645508 -0.00020202730956953 -7.01932003721595E-05
v 93.9320220947266 -0.000116255323518999 -8.4127314039506E-05
v 11.2278900146484 -0.000265148439211771 -7.9844867286738E-05
v 25.8147583007812 -0.000256382510997355 -5.92959659115877E-05
v 0.966939866542816 -0.000213265986531042 -6.49690337013453E-05
v 1.05449664592743 -8.40298744151369E-05 -5.96417958149686E-05
v 82.7370681762695 -0.000272940815193579 -9.16218268685043E-05
v 4.59619379043579 -0.00028699025278911 -5.8488265494816E-05
v 0.696978330612183 -0.000194397187442519 -3.36566990881693E-05
v 34.4700698852539 -0.00017371702415403 -7.67622550483793E-05
v 71.4829864501953 -0.00025026174262166 -7.4224459240213E-05
v 3.38818717002869 -0.000145306694321334 -6.17419354966842E-05
v 0.721389770507812 -0.000142070537549444 -2.43272133957362E-05
v 76.0947265625 -0.000216491112951189 -7.90182020864449E-05
v 1.06948065757751 -0.000185449651326053 -8.30856079119258E-05
v 0.702281832695007 -0.000211928898352198 -5.62792920391075E-05
v 45.5246963500977 -0.000143421202665195 -5.02922484884039E-05
v 7.40036344528198 -0.00026213945238851 -7.24524579709396E-05
v 56.4122848510742 -0.000158811322762631 -4.20672658947296E-05
v 1.50151968002319 -0.00021454413945321 -4.11303772125393E-05
v 0.75476610660553 -0.000280884181847796 -6.26756373094395E-05
v 1.45674204826355 -0.000299059523968026 -5.36889201612212E-05
v 0.660143435001373 -0.000217167355003767 -6.13548399996944E-05
v 1.98472487926483 -0.000125270817079581 -4.15214017266408E-05
v 0.696012616157532 -0.000283043016679585 -7.5891126471106E-05
v 56.7731552124023 -0.000198266934603453 -4.5976947149029E-05
v 1.36676299571991 -0.000294473313260823 -6.21119688730687E-05
v 0.685583233833313 -0.000254682032391429 -8.1317855801899E-05
v 0.692427754402161 -0.000199693604372442 -8.65797483129427E-05
v 0.958792567253113 -0.000210064361453988 -6.28714115009643E-05
v 0.636788427829742 -0.000236402775044553 -3.62667487934232E-05
v 53.624927520752 -0.000169989769347012 -8.19428532849997E-05
v 0.699401497840881 -0.0001597039954504 -5.73996112507302E-05
v 2.79071378707886 -0.000275708036497235 -8.5252002463676E-05
v 0.668188393115997 -0.000199349538888782 -7.37321606720798E-05
v 1.33124876022339 -0.000204639363801107 -5.78126418986358E-05
v 6.8109393119812 -0.00033864492434077 -6.08150403422769E-05
v 0.661800682544708 -0.000196910332306288 -6.8440189352259E-05
v 3.31827354431152 -0.000191028695553541 -4.92131803184748E-05
v 0.693609356880188 -0.000184688251465559 -4.62353782495484E-05
v 0.926819086074829 -0.000149002356920391 -7.98193286755122E-05
v 45.9761047363281 -0.000183090131031349 -5.77130340388976E-05
v 0.660420894622803 -0.000164683078764938 -5.92444703215733E-05
v 0.875597476959229 -0.000177026580786332 -9.80399781838059E-05
v 20.6657829284668 -0.000216749685932882 -5.70068623346742E-05
v 0.67042464017868 -0.000179384820512496 -5.53040881641209E-05
v 0.937068700790405 -0.000246484356466681 -5.34684877493419E-05
v 39.6241111755371 -0.000227098644245416 -4.31371809099801E-05
v 9.32522296905518 -0.000200027512619272 -5.30058205185924E-05
v 1.48242568969727 -0.000242898269789293 -4.76768618682399E-05
v 24.9157447814941 -0.000173534193891101 -5.12503866048064E-05
v 43.8388824462891 -0.000153443368617445 -6.27504850854166E-05
v 1.1344221830368 -0.000227298252866603 -5.19331151735969E-05
v 37.5018920898438 -0.000201915376237594 -7.13588742655702E-05
v 4.48894882202148 -0.000171892883372493 -6.57465934637003E-05
v 0.688607275485992 -0.000187593541340902 -5.79093139094766E-05
v 1.61015713214874 -0.000256045546848327 -7.03206824255176E-05
v 5.10050582885742 -0.000246499635977671 -5.02393158967607E-05
v 1.0517383813858 -3.45106236636639E-05 -4.4422886276152E-05
v 4.82864952087402 -0.000285279413219541 -6.58043718431145E-05
v 16.3449172973633 -0.000288947281660512 -5.84558547416236E-05
v 0.691472351551056 -0.000196305350982584 -4.97641449328512E-05
v 0.664076864719391 -0.000194509921129793 -5.43095848115627E-05
v 1.01056516170502 -0.000281029584584758 -7.41269104764797E-05
v 33.3147163391113 -0.000227413154789247 -7.13633053237572E-05
v 0.712259948253632 -0.000195363754755817 -9.99105759547092E-06
v 0.782320022583008 -0.000254994170973077 -8.25903043732978E-05
v 2.04147601127625 -0.000201573930098675 -8.36521794553846E-05
v 22.6023426055908 -0.000192173349205405 -5.68317191209644E-05
v 0.625278770923615 -0.000197671193745919 -5.6311928346986E-05
v 0.687197983264923 -0.000122061333968304 -8.1359947216697E-05
v 4.43501663208008 -0.000205665302928537 -6.58376375213265E-05
v 26.2376003265381 -0.000181635929038748 -5.65591180929914E-05
v 26.5099296569824 -0.000175202934769914 -7.38225280656479E-05
v 0.709188997745514 -0.000180370770976879 -5.83570072194561E-05
v 0.952579915523529 -0.000189809114090167 -5.56354789296165E-05
v 2.70925688743591 -0.000219182271393947 -5.72271419514436E-05
v 49.3832244873047 -0.000219819863559678 -3.53375762642827E-05
v 0.675779819488525 -0.000174545391928405 -5.95414894632995E-05
v 1.03422462940216 -0.000193679021322168 -5.25848263350781E-05
v 1.30709266662598 -0.000233387356274761 -5.07224249304272E-05
v 0.731936693191528 -0.000177881927811541 -5.22185546287801E-05
v 1.02317106723785 -0.000186339471838437 -0.000145382728078403
v 36.5558166503906 -0.000167587437317707 -0.000167880862136371
v 16.8688812255859 -0.000193579136976041 -0.00016836920985952
v 0.743875980377197 -0.000235421495744959 -0.000133691602968611
v 3.01772809028625 -9.33757328311913E-05 -0.000148346851347014
v 43.507869720459 -0.000280056177871302 -0.000178761125425808
v 0.667071759700775 -0.000162601441843435 -0.000136247195769101
v 1.07393646240234 -0.000182194358785637 -0.000142725199111737
v 1.03461170196533 -0.000131482986034825 -0.000128362225950696
v 54.8534317016602 -0.000263813533820212 -0.000148270351928659
v 41.1464347839355 -0.000174198008608073 -0.000180319169885479
v 0.724613308906555 -0.000197119559743442 -7.15203714207746E-05
v 0.692002296447754 -0.000245031726080924 -0.000214506726479158
v 4.98392105102539 -0.000185206226888113 -0.000124543221318163
v 3.14019393920898 -0.00018693957827054 -0.000139550276799127
v 11.6713485717773 -7.48636375647038E-05 -0.000100708304671571
v 2.4542977809906 -0.000177759706275538 -0.000202065813937224
v 1.57218658924103 -0.000218233923078515 -0.000133425535750575
v 62.5701217651367 -0.000247072835918516 -0.00015098211588338
v 4.83653831481934 -0.000202728537260555 -0.00018768003792502
v 1.45179891586304 -9.23522966331802E-05 -0.00014185719192028
v 1.11998438835144 -0.000190737613593228 -0.000143184835906141
v 48.1335487365723 -0.000182282252353616 -5.73411853110883E-05
v 0.765929400920868 -0.000185060111107305 -0.000136153583298437
v 8.81695652008057 -0.000220838526729494 -0.000167154474183917
v 2.3649525642395 -0.000278223538771272 -0.000189243422937579
v 79.5000457763672 -0.000171427353052422 -0.000155278263264336
v 2.54726219177246 -0.000186365490662865 -7.07364888512529E-05
v 0.770090818405151 -3.8060694350861E-05 -0.000146093909279443
v 1.64811253547668 -0.000152977605466731 -0.000139617579407059
v 88.758918762207 -0.000181248789886013 -0.000141745273140259
v 0.937912344932556 -0.000203911928110756 -0.000169149454450235
v 1.11775851249695 -0.000233738901442848 -0.000213103034184314
v 10.8136434555054 -0.000186110904905945 -0.000131303371745162
v 1.3276424407959 -0.000147590326378122 -0.00014274510613177
v 1.73166024684906 -0.000176491681486368 -2.91522737825289E-05
v 3.57665848731995 -0.000183226380613633 -0.000117171941383276
v 3.24639368057251 -0.000179424561792985 -0.000138826013426296
v 1.02238345146179 -0.000183013282367028 -0.000156184658408165
v 1.97386133670807 -0.000183192212716676 -0.000179030394065194
v 10.1719875335693 -0.000168207756360061 -0.000142550125019625
v 3.34093856811523 -0.000231823156354949 -0.00011304560030112
v 1.18792355060577 -0.000262953690253198 -0.00013518234482035
v 99.7150039672852 -0.00020837303600274 -0.000140340751386248
v 1.10735249519348 -0.000197525587282144 -0.000137428782181814
v 1.92581367492676 -0.000212705257581547 -0.000140177522553131
v 130.865997314453 -0.000213221064768732 -0.000140314572490752
v 100.125022888184 -0.00015673492453061 -0.000128837331430987
v 2.26060080528259 -0.00023908972798381 -0.000177563051693141
v 36.6565399169922 -0.000153964356286451 -0.000201407208805904
v 110.426567077637 -0.000216489104786888 -0.000159601622726768
v 2.32367086410522 -0.000197038374608383 -0.000151293104863726
v 25.5601806640625 -0.000154856825247407 -0.000162919837748632
v 1.68045401573181 -0.000177259018528275 -0.000163314922247082
v 97.4754180908203 -0.000204129610210657 -0.000120049822726287
v 35.1947326660156 -0.000156580543261953 -0.000183128824573942
v 1.51571154594421 -0.000235276078456081 -0.000117927724204492
v 92.4408569335938 -0.000210736354347318 -0.000165818055393174
v 147.25325012207 -0.000218941058847122 -0.000150919920997694
v 2.38067841529846 -0.000241749206907116 -0.000118611307698302
v 71.4739990234375 -0.000208061843295582 -0.000135770082124509
v 148.657409667969 -0.000251249963184819 -0.000156351394252852
v 145.49446105957 -0.000154434004798532 -0.000119931588415056
v 2.4809262752533 -0.000216036816709675 -0.000180207774974406
v 147.464477539062 -0.000156041031004861 -0.00016141177911777
v 22.3753604888916 -0.000235668878303841 -0.000167696111020632
v 149.070526123047 -0.000184784643352032 -0.000185165816219524
v 30.6531314849854 -0.000204741096240468 -0.000159363262355328
v 140.607025146484 -0.000182450676220469 -0.000192442836123519
v 146.156021118164 -0.000152472028275952 -0.000118287462100852
v 2.34735584259033 -0.000198542271391489 -0.000165471617947333
v 4.03793859481812 -0.000141172378789634 -0.000119518357678317
v 150.475006103516 -0.000209128862479702 -0.000180508635821752
v 80.4584274291992 -0.000262518675299361 -0.000141534284921363
v 143.007171630859 -0.000237838132306933 -0.000156819762196392
v 5.88701677322388 -0.000185175726073794 -0.000139746596687473
v 10.8402662277222 -0.000187012163223699 -0.000116784700367134
v 149.773956298828 -0.000198653739062138 -0.000152071821503341
v 150.368835449219 -0.000237223153817467 -0.000108129832369741
v 10.5547513961792 -0.000142470657010563 -0.000160180541570298
v 132.712051391602 -7.3501119913999E-05 -0.00020107401360292
v 147.581909179688 -0.000241260961047374 -0.000182170173502527
v 1.79249811172485 -0.000224376213736832 -0.000141833836096339
v 150.209121704102 -0.000266760645899922 -0.000143240424222313
v 149.187423706055 -0.000229560799198225 -0.000152157197589986
v 150.565567016602 -0.000189345388207585 -0.000181699128006585
v 150.866409301758 -0.000251316407229751 -0.000109124230220914
v 53.5596313476562 -0.000161474759806879 -5.62975837965496E-05
v 3.65115284919739 -0.000162470794748515 -0.000184791861101985
v 99.175651550293 -0.00020329502876848 -0.000171859108377248
v 146.344573974609 -0.000142761447932571 -0.000204323121579364
v 144.193740844727 -0.000170837694895454 -0.000175830224179663
v 146.900466918945 -0.000234546751016751 -0.000145027544931509
v 133.96696472168 -0.000174242653883994 -0.000192493738722987
v 21.5384464263916 -0.000166468526003882 -0.00012368026364129
v 151.138916015625 -0.000230626450502314 -0.000124443176900968
v 2.03637385368347 -0.000206164681003429 -0.0001557121577207
v 2.42223000526428 -0.000169896185980178 -0.000109346969111357
v 1.73667943477631 -0.000212556624319404 -0.000130851723952219
v 2.58233141899109 -3.99681448470801E-05 -0.000179649156052619
v 114.096031188965 -0.000161111383931711 -0.000133459732751362
v 2.16243505477905 -0.000274345657089725 -0.000127505205455236
v 2.78186941146851 -0.000205460237339139 -0.000176646426552907
v 79.656867980957 -0.000217602893826552 -0.000157910151756369
v 45.9611701965332 -0.00019112964218948 -0.000130130603793077
v 151.074203491211 -0.000256816012552008 -0.0001628059981158
v 1.60510575771332 -0.000176170695340261 -3.06132715195417E-05
v 115.37557220459 -0.000186044155270793 -0.000123401958262548
v 148.154174804688 -0.000258248677710071 -0.000210132799111307
v 109.343315124512 -0.000200175185455009 -0.000157370581291616
v 151.133193969727 -0.000240411696722731 -0.000166671132319607
v 118.316375732422 -0.000243771050008945 -0.000146394188050181
v 73.4586944580078 -0.000124979647807777 -0.000196706096176058
v 3.89000701904297 -0.000190995167940855 -0.000134936490212567
v 63.3709106445312 -0.000206228432944044 -0.000142498989589512
v 1.15001833438873 -0.000238782784435898 -0.000197803456103429
v 103.41544342041 -0.000143994519021362 -0.000153322544065304
v 7.11277198791504 -0.000189472470083274 -0.000184141361387447
v 2.24807357788086 -0.000127606690512039 -0.000186714431038126
v 15.3024845123291 -0.000225868134293705 -9.57271331571974E-05
v 1.14662897586823 -0.000160223367856815 -0.000146291175042279
v 144.866897583008 -0.000212286380701698 -0.000157958987983875
v 146.832656860352 -0.000183247932000086 -0.000182893709279597
v 129.523406982422 -0.000231198981055059 -0.000110291424789466
v 149.215042114258 -0.000149607745697722 -0.000145124882692471
v 150.86669921875 -0.000168106285855174 -9.77392919594422E-05
v 17.3278350830078 -0.000207654084078968 -0.000173001841176301
v 0.680264055728912 -0.000190323116839863 -0.000122721772640944
v 106.593910217285 -0.000257808715105057 -0.000162599011673592
v 0.614679217338562 -0.000159800954861566 -0.000140357238706201
v 59.7648124694824 -0.000146099293488078 -0.000177084963070229
v 146.127792358398 -0.000158396986080334 -0.000114590831799433
v 8.74595737457275 -0.000195787826669402 -0.000128759624203667
v 137.637878417969 -0.000165228469995782 -0.000159050934598781
v 43.204231262207 -0.000218167493585497 -0.000145776430144906
v 147.901870727539 -0.000131214561406523 -0.000197466477402486
v 4.83218717575073 -0.000158394905156456 -0.000122398239909671
v 2.83530330657959 -0.000330162263708189 -0.000111903551442083
v 0.787146389484406 -0.000172923639183864 -0.000121322860650253
v 119.057693481445 -0.000220015717786737 -0.000149962084833533
v 142.994644165039 -0.000222251866944134 -0.000126555387396365
v 0.794578850269318 -0.000152781154611148 -0.000167103600688279
v 124.22127532959 -0.000199542337213643 -0.000100502715213224
v 20.5717296600342 -0.000193377054529265 -0.00012132128176745
v 0.709751307964325 -0.000185305252671242 -0.000252885074587539
v 150.193969726562 -0.000232502672588453 -0.000132449436932802
v 82.5901031494141 -0.000167760474141687 -0.000168519225553609
v 0.681418478488922 -0.000112848465505522 -0.000170231985975988
v 0.688564777374268 -0.000256128812907264 -0.000117021474579815
v 134.633148193359 -0.000203918127226643 -0.000152837805217132
v 0.768553137779236 -0.000230260251555592 -0.000148115563206375
v 31.2748355865479 -0.000194734224351123 -0.000141933036502451
v 0.803216874599457 -0.000148384759086184 -0.000178083515493199
v 0.919247925281525 -0.00022374936088454 -0.00012849475024268
v 1.17845964431763 -0.000234251841902733 -8.64353569340892E-05
v 1.76216423511505 -0.000237243977608159 -0.000196179753402248
v 2.11010766029358 -0.000197677174583077 -0.000156189416884445
v 13.4114370346069 -0.000215838575968519 -0.000176365952938795
v 6.89696359634399 -0.000125822552945465 -0.000149155093822628

