# 18291 vertice(s)
v 0.643492817878723 20.088399887085 11.8937482833862
v 0.62704861164093 19.938325881958 3.19470119476318
v 0.658860087394714 20.1931667327881 15.9342679977417
v 0.627888262271881 19.7285690307617 15.9864654541016
v 0.638001501560211 18.1703472137451 15.8853206634521
v 0.667498767375946 20.2171897888184 4.3237509727478
v 0.628176927566528 0.090367004275322 10.5789566040039
v 0.701633512973785 0.128999695181847 15.3268661499023
v 0.684956014156342 0.212624460458755 1.5695960521698
v 0.66199141740799 0.196574404835701 10.7539491653442
v 0.703482151031494 9.91528224945068 2.56566071510315
v 0.665392279624939 0.0977720320224762 0.419274747371674
v 0.69098436832428 0.337728023529053 0.516595721244812
v 0.700988054275513 0.126807540655136 0.130631506443024
v 0.677125692367554 19.9590911865234 0.157291293144226
v 0.709340453147888 20.2578220367432 15.659348487854
v 0.645615816116333 0.163166806101799 0.109105877578259
v 0.687557220458984 11.7309465408325 15.2019863128662
v 0.701799988746643 20.011287689209 0.140219837427139
v 0.659638106822968 0.318150907754898 0.127418845891953
v 0.736229360103607 0.711019933223724 7.18118524551392
v 0.70067572593689 0.324553281068802 0.119402825832367
v 0.636760652065277 0.0750090032815933 13.819242477417
v 0.727229356765747 20.2605800628662 5.95480918884277
v 0.664719700813293 9.48984432220459 13.2358531951904
v 0.749021708965302 0.21040278673172 0.0773235484957695
v 0.731020271778107 20.1171264648438 0.20158688724041
v 0.690405786037445 19.9138565063477 0.119574584066868
v 0.730916500091553 0.0878989025950432 0.230899214744568
v 0.724527299404144 12.4139108657837 0.0892299264669418
v 0.792260468006134 20.2516555786133 1.48581171035767
v 0.714781403541565 7.88992309570312 0.0998052954673767
v 0.727583229541779 0.184203431010246 0.0736686512827873
v 0.704053699970245 20.2083225250244 16.1330852508545
v 0.721982955932617 20.1863040924072 0.190201491117477
v 0.737876713275909 20.2867698669434 11.9188041687012
v 0.745895206928253 19.9217090606689 0.112371452152729
v 0.766575396060944 20.2830600738525 12.9291925430298
v 0.738175392150879 0.289227455854416 0.0689878910779953
v 0.787840127944946 0.412035912275314 15.9986171722412
v 0.778039336204529 3.3481969833374 0.0862410664558411
v 0.727694451808929 0.578529536724091 15.77649974823
v 0.761638522148132 19.279748916626 16.1303672790527
v 0.766284167766571 0.0862254053354263 0.166365340352058
v 0.744763553142548 18.6600074768066 16.130859375
v 0.771310567855835 10.6307649612427 0.0797568932175636
v 0.767542719841003 0.0668806061148643 5.82338953018188
v 0.7274129986763 19.8141918182373 0.0992311462759972
v 0.75232982635498 0.0696399137377739 12.5944910049438
v 0.824511885643005 15.918851852417 16.1117858886719
v 0.761141061782837 5.15758228302002 15.6623458862305
v 0.749790012836456 20.2858600616455 7.90966176986694
v 0.725828945636749 19.9561500549316 0.114850774407387
v 0.772527873516083 6.79113101959229 15.7487659454346
v 0.790498375892639 19.9939708709717 0.118885912001133
v 0.792639791965485 19.4711456298828 16.1234035491943
v 0.75669127702713 0.101382166147232 16.1082382202148
v 0.781615257263184 0.105076864361763 0.124374896287918
v 0.790896713733673 8.17777729034424 15.8126821517944
v 0.773738324642181 20.27370262146 15.9651918411255
v 0.793177604675293 16.50705909729 16.0560436248779
v 0.781768441200256 0.0977701768279076 16.0978355407715
v 0.764813840389252 20.2730674743652 15.868369102478
v 0.810620307922363 1.72460174560547 0.080829843878746
v 0.858993291854858 0.0686090514063835 13.1524410247803
v 0.829431176185608 0.385518670082092 15.9908990859985
v 0.746299922466278 20.1567840576172 15.9574375152588
v 0.853938579559326 20.0196075439453 15.8846759796143
v 0.836512207984924 0.0778506845235825 6.60076284408569
v 0.825129210948944 9.89347743988037 15.0888347625732
v 0.80315363407135 0.0938652381300926 0.483127176761627
v 0.811903119087219 0.115895800292492 0.120550617575645
v 0.841139137744904 0.16626749932766 0.0683776065707207
v 0.818439364433289 20.2397575378418 2.15415287017822
v 0.82131165266037 0.189929902553558 15.935432434082
v 0.885254681110382 2.06016874313354 0.0788214802742004
v 0.809029698371887 0.262447506189346 0.0691900998353958
v 0.834918200969696 20.1445503234863 0.55658221244812
v 0.873067736625671 15.9575910568237 14.8799057006836
v 0.816810667514801 11.0341701507568 0.0830222517251968
v 0.889153897762299 0.32905638217926 0.0733281150460243
v 0.841586410999298 0.265843719244003 0.0694568976759911
v 0.87729823589325 19.7417240142822 0.162395998835564
v 0.884109616279602 0.478425174951553 13.2798099517822
v 0.865835785865784 18.1658210754395 13.8133335113525
v 0.896278977394104 16.8410396575928 0.0916643962264061
v 0.904733121395111 0.316333949565887 0.0727226436138153
v 0.927802681922913 2.91845917701721 0.0795717537403107
v 0.913903176784515 9.34499454498291 10.1390104293823
v 0.920275449752808 13.9079036712646 10.8091020584106
v 0.920326471328735 5.31867074966431 0.0738286674022675
v 0.934694528579712 19.805570602417 0.258695900440216
v 0.96869832277298 3.52456140518188 0.0765194743871689
v 0.991145968437195 18.5331001281738 0.125857576727867
v 0.905792653560638 0.285728484392166 0.074238508939743
v 1.02384495735168 0.214474350214005 0.0825851261615753
v 0.977250516414642 12.1598920822144 0.0905861631035805
v 0.966487348079681 2.41485953330994 8.57189655303955
v 1.00835812091827 0.422188341617584 9.99788856506348
v 1.00844025611877 0.303126871585846 9.97290420532227
v 1.06036901473999 0.1368757635355 1.04253995418549
v 1.00736939907074 18.6652641296387 2.80583667755127
v 1.04748165607452 15.6611089706421 0.102671563625336
v 1.0419465303421 15.5429162979126 0.102409303188324
v 0.999683678150177 0.201937645673752 8.82336521148682
v 1.03307235240936 19.0059776306152 0.460515797138214
v 1.05794668197632 0.990043818950653 0.0620163828134537
v 1.0566269159317 13.7893409729004 3.70169615745544
v 1.13366162776947 0.730740904808044 7.58971834182739
v 1.15313768386841 18.6053981781006 0.360358595848083
v 1.18285417556763 3.92688131332397 0.0715888813138008
v 1.19070541858673 0.300203084945679 8.1036548614502
v 1.21363413333893 15.8329267501831 0.108446478843689
v 1.21886253356934 0.310528069734573 0.0675873532891273
v 1.32321107387543 0.202891647815704 4.83980846405029
v 1.1744829416275 15.2553100585938 0.874504387378693
v 1.19623148441315 1.19949686527252 6.03685760498047
v 1.24909114837646 17.3254776000977 0.152242138981819
v 1.25568246841431 0.252337425947189 0.0736600160598755
v 1.23998332023621 16.8343677520752 0.142066702246666
v 1.35237431526184 0.494072616100311 0.0685181766748428
v 1.38364398479462 16.9460048675537 0.190986275672913
v 1.30397033691406 5.48198413848877 0.0713304802775383
v 1.34248208999634 0.714613556861877 6.05415296554565
v 1.49848437309265 0.162530064582825 0.141046538949013
v 1.38569569587708 0.849064946174622 0.0634777992963791
v 1.46294188499451 0.633503913879395 0.0636665672063828
v 1.34394156932831 0.176495268940926 0.100650779902935
v 1.67141628265381 0.936015963554382 0.0648532137274742
v 1.62960648536682 0.535744965076447 5.70950698852539
v 1.61660349369049 3.20002293586731 0.0636112913489342
v 1.50443041324615 0.172500416636467 0.267069876194
v 1.65494179725647 0.993620991706848 0.0618791654706001
v 1.75476372241974 14.640344619751 0.134552389383316
v 1.5187771320343 0.185540407896042 0.718050241470337
v 1.68518030643463 0.965179979801178 0.0651803687214851
v 1.77519869804382 11.6304578781128 0.306046396493912
v 1.92829704284668 0.310242563486099 0.0700550600886345
v 1.93147075176239 11.8628158569336 0.091034322977066
v 1.85811364650726 0.533638656139374 4.91004133224487
v 1.91870832443237 0.401606410741806 0.0687895119190216
v 2.19144654273987 0.184339612722397 0.0867510437965393
v 2.10744023323059 0.279526859521866 2.26192092895508
v 2.22442150115967 0.651481866836548 0.0594247318804264
v 2.25840783119202 11.3357706069946 0.0868710279464722
v 2.22644138336182 1.23633360862732 4.24104118347168
v 2.34104156494141 0.252154946327209 0.924976110458374
v 2.27126812934875 11.8299407958984 0.163949623703957
v 2.67918968200684 2.2484769821167 2.59059500694275
v 2.54351115226746 0.759734332561493 4.68067932128906
v 2.59212279319763 0.166081488132477 0.110637053847313
v 2.70274138450623 0.455638557672501 3.91674709320068
v 2.82545137405396 0.180666550993919 0.446096837520599
v 3.0881495475769 0.303115457296371 0.0621181838214397
v 2.78744268417358 10.7487850189209 0.15793065726757
v 3.08199548721313 0.218834355473518 0.497320145368576
v 3.36465716362 10.4052333831787 0.0973566845059395
v 3.35548639297485 5.91995477676392 0.461649388074875
v 3.73948192596436 3.15912842750549 1.53091096878052
v 3.46515512466431 0.2448600679636 0.0735238194465637
v 4.00105476379395 0.487481504678726 0.0639661625027657
v 4.04348945617676 0.159946635365486 0.0965734794735909
v 4.43909788131714 0.375138878822327 3.50470471382141
v 3.92948269844055 0.22421059012413 0.0695304423570633
v 4.46683120727539 0.170400261878967 0.07597915828228
v 4.28731203079224 8.51066780090332 0.188407778739929
v 5.22242832183838 0.374195069074631 2.41088032722473
v 5.32748651504517 1.10265529155731 0.072050005197525
v 5.6862907409668 0.318538844585419 0.0626928880810738
v 6.06403207778931 0.196572542190552 0.415056139230728
v 6.28755760192871 2.06525230407715 2.80122780799866
v 7.41080141067505 0.36236047744751 2.89706563949585
v 6.93381834030151 0.204257637262344 0.0719392672181129
v 8.06996917724609 7.92866897583008 0.0984472408890724
v 7.16201543807983 0.157738447189331 0.289960741996765
v 8.36758613586426 0.965458393096924 5.26647567749023
v 10.4145488739014 0.296678274869919 0.0658548027276993
v 11.6837339401245 7.41343355178833 0.0995953232049942
v 11.4438047409058 8.07520389556885 0.138171926140785
v 12.5632390975952 0.222176715731621 0.0716679692268372
v 14.666522026062 7.17716550827026 0.0959189087152481
v 13.7360019683838 1.55327880382538 3.91872668266296
v 14.248779296875 0.273162573575974 1.60915064811707
v 15.6793851852417 1.68373906612396 0.0626506507396698
v 17.5050888061523 0.145810544490814 0.294984072446823
v 19.9102439880371 0.356855422258377 4.6448278427124
v 19.8916835784912 0.425399541854858 0.0636153444647789
v 23.6761322021484 6.60139465332031 0.104707255959511
v 25.0483551025391 6.01117563247681 0.0918925851583481
v 26.1053886413574 0.55221951007843 5.85133361816406
v 29.4331436157227 0.282640159130096 4.34763336181641
v 30.0848178863525 0.368393570184708 0.0663612261414528
v 32.661937713623 0.434659242630005 0.0683762058615685
v 33.3359909057617 4.27774381637573 0.504910230636597
v 34.4816284179688 0.134932339191437 0.317695170640945
v 38.3535690307617 2.45244646072388 1.36121737957001
v 41.1191329956055 5.97766542434692 0.248006165027618
v 42.6161346435547 6.42121315002441 0.151153311133385
v 43.8907814025879 0.635488212108612 6.68110609054565
v 47.3133010864258 4.53798675537109 0.467434257268906
v 49.611011505127 0.114611022174358 0.157935664057732
v 51.3781852722168 0.125172227621078 0.113097876310349
v 52.9482192993164 1.05171382427216 5.12516164779663
v 54.9427070617676 0.522000551223755 0.0767987295985222
v 56.7612991333008 0.120727360248566 0.96413254737854
v 59.3215141296387 5.90700101852417 0.202556014060974
v 60.8092994689941 0.457589030265808 8.45164775848389
v 64.3597564697266 5.76967573165894 0.241538226604462
v 64.9437255859375 0.385022848844528 0.0735532119870186
v 66.8494567871094 0.121491432189941 0.161091938614845
v 69.4169540405273 0.24462266266346 9.5042142868042
v 71.6074981689453 0.176679819822311 0.0904625430703163
v 74.0050582885742 0.146530836820602 0.102538503706455
v 76.0145645141602 3.71045207977295 1.027188539505
v 77.8434143066406 3.44746828079224 0.131038263440132
v 79.6220092773438 0.119874998927116 0.169431537389755
v 81.7338104248047 0.103817529976368 0.337270468473434
v 83.0476379394531 0.10950556397438 0.311257988214493
v 87.3131103515625 0.184244185686111 0.0992538556456566
v 89.363166809082 4.23086881637573 0.183759450912476
v 89.6818771362305 4.34407472610474 1.09002912044525
v 92.5891036987305 5.31039571762085 0.36373645067215
v 92.7874908447266 0.146373391151428 0.122087523341179
v 95.8382415771484 0.133970141410828 10.6081390380859
v 98.0890350341797 0.245684832334518 0.109397508203983
v 100.926712036133 3.50393295288086 0.18853934109211
v 102.576965332031 0.165703535079956 13.9915428161621
v 104.675018310547 0.811685979366302 10.6808137893677
v 107.27375793457 4.10665655136108 0.239629969000816
v 108.526428222656 4.07066345214844 3.89564299583435
v 110.520919799805 0.114735431969166 11.783408164978
v 112.612319946289 4.1634202003479 0.251498192548752
v 114.920349121094 5.00535011291504 2.71265292167664
v 117.023468017578 1.58153676986694 0.170426890254021
v 119.138488769531 2.10602474212646 10.3534488677979
v 120.302635192871 5.32990503311157 3.77500033378601
v 121.160308837891 0.423231959342957 0.139114260673523
v 122.833114624023 0.0942901968955994 9.82190608978271
v 125.755950927734 0.231568291783333 15.7640571594238
v 126.705551147461 0.129245027899742 0.24003005027771
v 129.352584838867 5.58040952682495 7.62676477432251
v 131.286682128906 0.201542660593987 15.8122110366821
v 132.701080322266 1.7525360584259 15.4860563278198
v 133.126205444336 0.137427732348442 0.212071433663368
v 135.786682128906 2.5311450958252 15.7152900695801
v 135.715713500977 7.46711778640747 2.36744236946106
v 136.259979248047 0.293923556804657 15.9023666381836
v 137.601623535156 7.77098941802979 3.17842531204224
v 137.317260742188 14.9512548446655 15.1323804855347
v 137.839462280273 0.116904176771641 15.5662221908569
v 138.962783813477 0.181850656867027 0.220031261444092
v 140.165924072266 7.44472742080688 0.386029809713364
v 141.248291015625 11.9284629821777 16.0184669494629
v 140.555877685547 0.0839441418647766 8.56954002380371
v 145.041885375977 18.4138050079346 15.2309417724609
v 142.379150390625 0.0967033058404922 0.61901843547821
v 142.071472167969 0.0958842784166336 1.04650938510895
v 144.53727722168 14.8291835784912 15.9621829986572
v 144.6943359375 5.68095588684082 16.0218181610107
v 144.32780456543 0.0951244235038757 1.09009277820587
v 145.229034423828 14.3947973251343 14.1896553039551
v 145.464279174805 10.7117137908936 15.7291688919067
v 145.216125488281 3.66250514984131 0.182031139731407
v 145.050750732422 0.114992372691631 16.0034484863281
v 145.157653808594 0.0956311002373695 15.9140377044678
v 145.985900878906 0.916711151599884 16.0427322387695
v 145.984130859375 0.438980668783188 16.0733737945557
v 146.032302856445 16.9966812133789 5.71637010574341
v 146.606369018555 13.7537174224854 0.351225972175598
v 146.505172729492 0.069714181125164 10.5440664291382
v 146.852157592773 4.47568655014038 15.6175451278687
v 146.841293334961 0.0678265318274498 15.3545322418213
v 147.751922607422 3.46051383018494 15.6483268737793
v 147.421936035156 0.0616037026047707 14.2978315353394
v 147.816436767578 19.3394775390625 2.24827432632446
v 147.283645629883 0.283255904912949 16.0946140289307
v 147.506011962891 9.50182437896729 0.183774083852768
v 147.629653930664 0.114360652863979 0.237620204687119
v 147.931686401367 10.0307121276855 0.163177341222763
v 148.118148803711 19.7916736602783 0.242778047919273
v 148.413757324219 0.0605090446770191 12.176926612854
v 148.357086181641 0.110261484980583 0.203998908400536
v 148.213638305664 20.207555770874 0.29422453045845
v 148.112609863281 19.6220550537109 8.49463748931885
v 148.310180664062 20.1490077972412 4.8681116104126
v 148.054412841797 0.200503021478653 16.0925407409668
v 148.430404663086 0.140974223613739 0.149891570210457
v 148.127685546875 17.3420314788818 12.2736654281616
v 148.48258972168 0.392214119434357 15.8664255142212
v 148.687881469727 19.3263416290283 11.6539678573608
v 148.128173828125 0.148478791117668 16.092321395874
v 148.594985961914 19.4307327270508 12.5310287475586
v 148.42317199707 20.2982635498047 7.83450031280518
v 148.889770507812 20.3153877258301 0.428499013185501
v 149.042053222656 20.3098945617676 6.68472194671631
v 148.469619750977 7.50508975982666 0.111019626259804
v 149.23225402832 20.293478012085 11.0076503753662
v 148.748321533203 0.0769766271114349 0.672868132591248
v 148.94775390625 0.104883924126625 0.198533430695534
v 148.809387207031 0.0680749714374542 1.46593773365021
v 148.912567138672 20.3047466278076 0.111446030437946
v 148.964111328125 20.2511806488037 15.4960737228394
v 149.378936767578 20.2631549835205 15.5784597396851
v 148.970474243164 0.0724617093801498 13.7593021392822
v 149.0869140625 0.282673239707947 15.872501373291
v 149.294692993164 0.111691311001778 16.0684490203857
v 149.007553100586 20.3212966918945 1.70817565917969
v 149.355010986328 20.2346572875977 0.0631075203418732
v 149.187683105469 0.0733265951275826 11.3669500350952
v 149.543106079102 20.188325881958 0.0569699145853519
v 149.789199829102 2.0980703830719 6.34341382980347
v 149.476257324219 0.0824949741363525 15.6163673400879
v 149.40983581543 1.09658062458038 0.888253331184387
v 149.465393066406 14.6362552642822 14.8131637573242
v 149.766540527344 0.0811771675944328 4.61812353134155
v 149.389694213867 0.0893274992704391 15.7955503463745
v 149.624893188477 0.0967843383550644 0.478444963693619
v 149.52033996582 4.41105079650879 0.280127108097076
v 149.74592590332 20.2855091094971 0.0791089981794357
v 149.516876220703 0.0817738920450211 12.8052644729614
v 149.727233886719 20.26780128479 15.198844909668
v 149.700134277344 20.2813014984131 0.0779755935072899
v 149.618896484375 20.3012104034424 13.3336172103882
v 149.68977355957 8.70816707611084 2.08853697776794
v 149.695159912109 20.2616634368896 0.0731025636196136
v 149.545745849609 0.319370359182358 16.0061016082764
v 149.69563293457 0.108038365840912 8.77015399932861
v 149.877532958984 20.1687088012695 0.0681627169251442
v 149.801483154297 20.1690788269043 0.0653151944279671
v 149.703872680664 0.135849922895432 14.2629556655884
v 149.953063964844 20.2194004058838 0.0693395733833313
v 149.958709716797 11.0043287277222 3.36493158340454
v 150.020004272461 20.1614933013916 0.0786792635917664
v 149.908554077148 20.1525077819824 0.0870628952980042
v 150.02522277832 20.256420135498 0.106689691543579
v 149.98371887207 14.7433109283447 0.160973563790321
v 150.224243164062 20.2573833465576 0.228129163384438
v 150.245056152344 18.9838676452637 1.47436952590942
v 150.028778076172 20.2058238983154 0.67676305770874

v -237.986953735352 32.8593254089355 12.2930278778076
v -237.06266784668 30.2067852020264 1.24385237693787
v -236.394805908203 38.5483818054199 25.0510139465332
v -234.747894287109 25.0048980712891 27.4584846496582
v -233.302185058594 18.9204540252686 23.8790130615234
v -231.881546020508 41.9473762512207 3.36438226699829
v -224.541595458984 -35.8248138427734 5.91303682327271
v -225.670379638672 -28.1003398895264 14.2909774780273
v -224.449172973633 -17.6768817901611 -3.69325685501099
v -224.540328979492 -20.3571357727051 7.47034788131714
v -229.424606323242 10.5588474273682 -0.808526873588562
v -222.050338745117 -34.02294921875 -10.0003690719604
v -223.449249267578 -11.1406660079956 -8.03398609161377
v -221.243408203125 -26.2947959899902 -21.777868270874
v -225.848037719727 32.3498458862305 -16.2923736572266
v -228.051849365234 47.490364074707 22.3076362609863
v -219.748153686523 -22.4275493621826 -24.4701347351074
v -224.963226318359 12.032078742981 16.6363868713379
v -223.258331298828 32.9330825805664 -16.9485263824463
v -219.688232421875 -11.8351411819458 -20.2519989013672
v -222.707916259766 -5.63031721115112 4.97350645065308
v -218.229766845703 -11.0677442550659 -22.1092758178711
v -215.21484375 -44.1352348327637 9.87584686279297
v -221.258666992188 48.173168182373 6.4415168762207
v -221.901000976562 8.99764728546143 13.3004426956177
v -213.902694702148 -16.7842617034912 -29.270170211792
v -221.702285766602 36.7963676452637 -12.5188837051392
v -217.805633544922 31.4831447601318 -20.0129928588867
v -211.604843139648 -35.8333168029785 -15.4236707687378
v -215.234420776367 15.0332736968994 -28.0300140380859
v -218.008605957031 46.3919143676758 0.22724087536335
v -214.987777709961 8.6156177520752 -25.2761306762695
v -209.829406738281 -18.4922256469727 -33.4905204772949
v -217.020629882812 38.5699157714844 48.2687530517578
v -214.561218261719 39.4918975830078 -11.9391345977783
v -215.386703491211 53.1927223205566 14.6719903945923
v -211.095184326172 31.5201454162598 -20.7607688903809
v -214.050155639648 53.0630378723145 16.1834716796875
v -205.790267944336 -13.0565614700317 -33.2629089355469
v -211.346984863281 -12.7599267959595 25.971435546875
v -207.762283325195 2.57069420814514 -27.5751819610596
v -209.230834960938 -9.26794147491455 21.0625305175781
v -211.806167602539 21.7790927886963 46.9039459228516
v -202.148330688477 -34.8144493103027 -17.8420505523682
v -210.311874389648 19.6801338195801 45.7304344177246
v -204.653701782227 12.4623546600342 -29.2113380432129
v -199.598983764648 -44.8325729370117 1.19288444519043
v -205.935760498047 29.0895900726318 -22.7036952972412
v -198.331817626953 -48.6703605651855 8.91056632995605
v -206.709426879883 15.598256111145 41.5894203186035
v -204.061721801758 2.81007313728333 20.8031330108643
v -205.202713012695 52.8396873474121 10.6427431106567
v -202.31623840332 31.163402557373 -19.6429653167725
v -201.763381958008 5.00589847564697 22.1038131713867
v -201.052673339844 31.4504680633545 -18.8715076446533
v -201.943923950195 23.6333885192871 44.1437873840332
v -197.015640258789 -37.2488555908203 36.5573196411133
v -192.934982299805 -31.5055999755859 -19.3462715148926
v -197.878372192383 6.70929765701294 22.8485813140869
v -198.781036376953 47.5808868408203 30.3572006225586
v -196.513732910156 17.5513439178467 32.7326202392578
v -193.935882568359 -38.1725578308105 34.2180099487305
v -197.014083862305 47.9731788635254 27.5438041687012
v -191.675506591797 0.731144487857819 -27.6981163024902
v -188.613388061523 -45.0624771118164 11.1774415969849
v -193.575607299805 -12.5873146057129 26.0900135040283
v -194.0126953125 34.4436111450195 29.2535667419434
v -192.158157348633 29.0943222045898 26.196044921875
v -187.888977050781 -39.6620292663574 3.62035155296326
v -190.258331298828 9.12724494934082 18.833158493042
v -187.353256225586 -33.3707962036133 -6.69802188873291
v -185.560653686523 -27.8195266723633 -19.3733386993408
v -184.568222045898 -20.2367610931396 -30.4054374694824
v -191.882736206055 41.1245574951172 4.24367046356201
v -187.35400390625 -21.5278224945068 24.8287925720215
v -184.590606689453 2.43152236938477 -26.795747756958
v -183.293975830078 -13.8581171035767 -31.246114730835
v -186.294570922852 34.6897621154785 -1.05215489864349
v -185.953948974609 16.1643619537354 18.3684673309326
v -182.023742675781 13.1520690917969 -25.3211784362793
v -179.448989868164 -8.2626371383667 -29.3047695159912
v -179.339141845703 -14.2323141098022 -29.8057765960693
v -182.097061157227 25.9593982696533 -13.1065702438354
v -178.943054199219 -8.51901149749756 15.0421772003174
v -179.524124145508 18.9304237365723 17.3178291320801
v -177.683212280273 19.0050315856934 -20.5133743286133
v -173.821243286133 -11.0523538589478 -29.066198348999
v -173.551010131836 4.30013561248779 -27.179479598999
v -173.740081787109 8.72731685638428 12.7147960662842
v -172.763946533203 13.5902462005615 14.7370405197144
v -170.531234741211 7.42551279067993 -26.7525177001953
v -172.27311706543 26.1613731384277 -5.37520503997803
v -167.559295654297 5.3354959487915 -27.3071746826172
v -167.922210693359 21.1476802825928 -15.9893741607666
v -165.255477905273 -11.4313869476318 -27.8451976776123
v -163.547927856445 -14.7445545196533 -26.1030788421631
v -163.976608276367 14.5382356643677 -23.0269012451172
v -162.56884765625 0.722997963428497 10.7337188720703
v -161.09797668457 -9.19938945770264 12.0327577590942
v -158.571884155273 -11.8228187561035 12.2159519195557
v -157.929565429688 -22.4033298492432 0.031342301517725
v -158.365997314453 19.8520736694336 7.27281188964844
v -156.20133972168 18.0124950408936 -19.1702499389648
v -154.690231323242 17.8494262695312 -19.2176113128662
v -152.441848754883 -17.0190486907959 10.704626083374
v -153.403213500977 21.256441116333 -0.969933331012726
v -148.96696472168 -0.562953948974609 -28.7352142333984
v -148.806747436523 13.7093563079834 7.27900314331055
v -146.104522705078 -4.24255180358887 10.2713203430176
v -147.262359619141 20.4053707122803 -2.90802478790283
v -143.576919555664 6.13101577758789 -27.3832530975342
v -142.454818725586 -11.8492002487183 10.6312465667725
v -141.012237548828 18.3001537322998 -17.5310478210449
v -137.980590820312 -9.43162250518799 -27.2495994567871
v -135.648544311523 -16.7409057617188 6.9480185508728
v -137.21630859375 15.8174600601196 1.7081983089447
v -133.093765258789 -1.25976371765137 9.35372829437256
v -132.745727539062 19.5457134246826 -11.5000085830688
v -128.139831542969 -10.516375541687 -26.5497398376465
v -128.014465332031 19.2576389312744 -11.7987985610962
v -125.22151184082 -4.96076917648315 -28.7841644287109
v -125.660774230957 18.8081531524658 -7.73138380050659
v -121.777870178223 7.95407772064209 -25.8355827331543
v -120.43278503418 -4.4736590385437 9.53970336914062
v -118.55443572998 -18.5393600463867 -13.5805683135986
v -114.951683044434 -1.63585317134857 -28.78489112854
v -113.858764648438 -3.64100170135498 -28.7545223236084
v -111.353515625 -17.2333793640137 -18.4459915161133
v -108.962898254395 -1.53192913532257 -28.4259338378906
v -109.370880126953 -5.26213502883911 9.49475955963135
v -107.809562683105 4.87773323059082 -27.2113151550293
v -105.068878173828 -18.2284698486328 -5.41007614135742
v -102.25074005127 -0.82671731710434 -28.5082702636719
v -101.723022460938 18.1608257293701 -12.0831575393677
v -98.8562850952148 -15.6550817489624 1.03347313404083
v -96.0219573974609 -0.694625675678253 -28.2043075561523
v -95.8416290283203 14.8157958984375 -2.42584013938904
v -93.0616302490234 -9.70351123809814 -26.1553421020508
v -89.7974243164062 15.811261177063 -18.0481986999512
v -88.9461517333984 -4.87214469909668 9.29459953308105
v -85.6347732543945 -6.63763570785522 -27.3240413665771
v -85.0125122070312 -16.79665184021 -19.8256072998047
v -82.2074432373047 -9.6795825958252 6.52347469329834
v -80.5477600097656 -1.90983641147614 -27.8430309295654
v -78.4629135131836 14.9029035568237 -17.4997730255127
v -76.6057281494141 -0.514754235744476 8.36171245574951
v -75.1408538818359 -11.7911367416382 3.52644324302673
v -72.5740203857422 16.5199069976807 -8.59988498687744
v -70.4676284790039 3.48789119720459 7.04594039916992
v -67.6069717407227 -3.0761706829071 9.30428886413574
v -64.9397888183594 -18.9448566436768 -15.7035799026489
v -63.7644500732422 -6.87519884109497 8.78975009918213
v -61.7450523376465 -15.1358585357666 -0.66818755865097
v -59.4927940368652 -8.13522052764893 -26.5919055938721
v -58.5013809204102 15.9540538787842 -7.88520002365112
v -55.7045135498047 -14.5921611785889 -0.297623336315155
v -52.7593116760254 15.5740118026733 -15.1484375
v -52.2003135681152 9.4137659072876 1.21551096439362
v -49.6502532958984 5.24718952178955 5.84630918502808
v -46.9328422546387 -11.5148811340332 -25.1198291778564
v -44.6307525634766 -4.13571786880493 -27.3922557830811
v -42.19921875 -19.0657482147217 -18.7535533905029
v -40.6874465942383 -7.2955265045166 7.88505220413208
v -38.8891792297363 -12.3595457077026 -25.0348148345947
v -37.3624610900879 -15.4267282485962 -23.1027297973633
v -34.8422889709473 14.2194204330444 -5.45759725570679
v -33.2656097412109 -8.97639083862305 5.99527406692505
v -30.1864566802979 2.26348662376404 -27.1122016906738
v -28.6403884887695 -6.32607793807983 -27.3715763092041
v -25.7110385894775 -16.311408996582 -1.86193871498108
v -23.7364616394043 2.72304821014404 7.70168781280518
v -21.6806545257568 -9.62460136413574 6.48977947235107
v -20.1628341674805 -11.9037284851074 -25.582820892334
v -16.3784408569336 14.4049549102783 -16.0457859039307
v -15.3017978668213 -19.5549144744873 -5.4629921913147
v -11.6350479125977 -0.572881758213043 11.0688533782959
v -10.031400680542 -7.74693059921265 -27.1631355285645
v -6.87822294235229 14.0815744400024 -15.6167373657227
v -5.9641056060791 15.3740148544312 -10.1491565704346
v -4.72730302810669 -11.0171537399292 -26.3003997802734
v -1.40659260749817 14.0254955291748 -15.1439170837402
v -1.03590071201324 1.3002256155014 9.16649723052979
v 1.9638295173645 -11.927188873291 5.35549783706665
v 4.28476047515869 5.42728519439697 -23.5963287353516
v 5.06164836883545 -20.8461627960205 -4.63013124465942
v 7.52796792984009 -8.09395599365234 9.9398365020752
v 9.8811206817627 -2.8065493106842 -26.7489967346191
v 13.6433534622192 13.4905548095703 -13.5511121749878
v 15.1354722976685 12.6638078689575 -14.7207508087158
v 16.5903472900391 -5.22185373306274 11.2418117523193
v 20.2014274597168 -10.1445188522339 9.4969482421875
v 21.4744434356689 -4.50129413604736 -26.3845157623291
v 24.2565956115723 -2.91586923599243 -25.735559463501
v 25.6310634613037 8.9022741317749 -0.176858320832253
v 26.5331649780273 -23.2193565368652 -4.36170816421509
v 29.8890342712402 4.37342977523804 3.3735191822052
v 32.9162902832031 12.6442108154297 -4.4115047454834
v 34.318977355957 13.7667608261108 -9.01689147949219
v 35.7983665466309 -4.84581470489502 11.3079061508179
v 39.1776466369629 9.55447673797607 -0.226277619600296
v 41.5609855651855 -24.7418651580811 -11.6576309204102
v 43.7220726013184 -21.6035900115967 -17.3961200714111
v 45.1637077331543 -1.04894769191742 9.06010246276855
v 46.7935829162598 -2.28112506866455 -22.7407760620117
v 49.300178527832 -22.9043750762939 2.71803188323975
v 51.4012794494629 11.7997274398804 -4.25452375411987
v 53.2373161315918 -7.27936792373657 14.4884328842163
v 56.5778007507324 11.3269453048706 -3.07451605796814
v 57.1975784301758 -6.19403696060181 -22.9136142730713
v 59.5135955810547 -25.9113960266113 -9.91101264953613
v 62.2266502380371 -14.0781259536743 15.9397974014282
v 64.1148300170898 -16.4028511047363 -20.6394062042236
v 66.6070556640625 -20.3255310058594 -17.7696876525879
v 68.546516418457 5.8266453742981 4.32345867156982
v 70.0689392089844 9.42851257324219 -8.20125389099121
v 72.3510589599609 -26.0567817687988 -9.54955101013184
v 74.4469223022461 -28.0762729644775 -2.44627046585083
v 76.0939331054688 -28.0451374053955 -3.43542075157166
v 79.7666015625 -15.71826171875 -18.9591102600098
v 81.4173431396484 9.57873058319092 -5.41259956359863
v 82.2763977050781 6.72827005386353 3.91300320625305
v 85.1377792358398 9.36921501159668 -0.736366987228394
v 85.7413635253906 -20.2494697570801 -15.6621541976929
v 89.4138946533203 -23.7514400482178 18.4854259490967
v 90.7844085693359 -11.2518978118896 -17.7185592651367
v 93.2518310546875 7.94666290283203 -6.31981945037842
v 96.5171585083008 -20.116548538208 23.0050563812256
v 98.394157409668 -3.37345719337463 15.884295463562
v 99.8009338378906 7.89853000640869 -5.05697679519653
v 101.910140991211 5.10345315933228 7.44210910797119
v 104.784812927246 -28.63454246521 18.2650547027588
v 105.102363586426 7.32832145690918 -4.55332040786743
v 108.244277954102 6.77582406997681 5.60208940505981
v 109.684059143066 2.99498605728149 -9.27635478973389
v 114.107757568359 1.51478731632233 14.2906818389893
v 113.678749084473 7.08205842971802 6.61556911468506
v 113.948356628418 -5.93599510192871 -12.98850440979
v 117.686180114746 -33.1622619628906 14.6772594451904
v 122.012199401855 -18.2426300048828 25.6340847015381
v 121.095268249512 -24.2701797485352 -9.62425231933594
v 124.88224029541 6.46895027160645 10.1767978668213
v 127.828628540039 -19.4235992431641 27.2248268127441
v 130.899963378906 0.891742765903473 23.6363162994385
v 128.597137451172 -23.1774635314941 -10.2318115234375
v 134.83576965332 2.49498510360718 25.6681537628174
v 133.583099365234 10.0168571472168 4.09845733642578
v 138.215835571289 -12.8540172576904 26.884485244751
v 135.768539428711 10.0240488052368 5.02376508712769
v 139.998123168945 18.229700088501 21.6392669677734
v 140.03840637207 -31.9962501525879 21.6358833312988
v 140.020401000977 -16.9303646087646 -11.3944473266602
v 141.104202270508 11.9074296951294 -3.85024333000183
v 149.226318359375 15.7180261611938 34.3371810913086
v 145.095489501953 -37.3324317932129 8.26358604431152
v 151.088302612305 24.5461235046387 22.721170425415
v 147.690277099609 -32.4774475097656 -7.11373567581177
v 149.322311401367 -34.9677696228027 -4.88394069671631
v 157.511917114258 20.561882019043 30.3732109069824
v 157.679000854492 8.28020095825195 32.7850456237793
v 153.571899414062 -35.8877563476562 -6.61299705505371
v 159.394622802734 18.8363609313965 18.7352962493896
v 162.01579284668 15.2274570465088 24.3907127380371
v 157.275894165039 10.381965637207 -12.7540111541748
v 162.108428955078 -33.0241050720215 25.8555316925049
v 163.891876220703 -38.7398986816406 20.3035736083984
v 166.266387939453 -2.45838499069214 32.206672668457
v 168.846435546875 -9.10227203369141 33.4404335021973
v 165.908401489258 21.3454456329346 7.04437255859375
v 164.635864257812 20.143461227417 -6.38455152511597
v 168.475357055664 -48.2489471435547 3.22928643226624
v 172.727310180664 8.36802864074707 21.4279041290283
v 171.738739013672 -50.235595703125 11.1692037582397
v 174.588623046875 7.06756973266602 21.2774505615234
v 173.726913452148 -52.3420753479004 7.13517189025879
v 173.005447387695 27.7102031707764 2.41686058044434
v 179.475387573242 -14.5180358886719 35.5946922302246
v 172.810745239258 16.2118587493896 -14.7909955978394
v 176.232192993164 -28.6075954437256 -20.5095901489258
v 177.305236816406 16.5779113769531 -16.3696613311768
v 177.195922851562 31.1769962310791 -8.96198844909668
v 181.848724365234 -54.0389060974121 2.74820494651794
v 180.434921264648 -29.0341739654541 -21.4372310638428
v 181.598739624023 42.9654121398926 -5.74042177200317
v 183.975845336914 28.0327529907227 12.0021657943726
v 184.876266479492 37.8752517700195 8.73523902893066
v 190.612106323242 -18.9016342163086 34.3787536621094
v 184.366546630859 -21.7440986633301 -25.148609161377
v 187.973678588867 22.3413505554199 16.6081390380859
v 191.313400268555 -7.41153430938721 20.3205699920654
v 189.03271484375 26.7027225494385 16.0842590332031
v 194.865539550781 -26.2435245513916 32.1237945556641
v 190.754669189453 27.1921653747559 17.3076629638672
v 190.803161621094 55.4485321044922 14.1942539215088
v 189.432708740234 60.8856353759766 -0.764208436012268
v 192.172119140625 57.625358581543 12.9483842849731
v 189.016189575195 12.3170261383057 -24.6540145874023
v 194.299423217773 55.4671821594238 18.1090316772461
v 190.647521972656 -43.3630065917969 -13.7052097320557
v 192.44499206543 -31.2308292388916 -20.7066497802734
v 192.122894287109 -45.6234283447266 -11.297290802002
v 193.390258789062 61.3895645141602 -16.0709896087646
v 197.867614746094 46.2415733337402 24.8168640136719
v 199.140350341797 45.9648895263672 25.1507015228271
v 198.866333007812 -48.510814666748 4.10293102264404
v 202.81494140625 -11.0480051040649 19.0572452545166
v 206.296508789062 -35.3571548461914 25.1152458190918
v 201.335968017578 65.0212326049805 6.26773166656494
v 197.895385742188 50.7547492980957 -30.4095878601074
v 199.639175415039 -46.5698661804199 0.998249351978302
v 197.236770629883 45.4151077270508 -32.6054306030273
v 205.022994995117 1.16068291664124 5.92212343215942
v 206.672500610352 -44.3963012695312 9.61580753326416
v 207.907852172852 -3.16594696044922 -4.94183015823364
v 208.503326416016 19.2111511230469 24.090087890625
v 203.300033569336 -41.0761604309082 -6.48290777206421
v 209.933700561523 -42.1189727783203 11.3419981002808
v 204.529815673828 -33.0697402954102 -15.0584764480591
v 210.845291137695 4.050217628479 -11.155029296875
v 204.333938598633 58.0260734558105 -25.5745220184326
v 210.720718383789 -40.5028343200684 2.97541522979736
v 212.271408081055 49.7192344665527 22.9623241424561
v 208.525909423828 57.9066352844238 -24.9445877075195
v 212.626647949219 55.4782981872559 20.0131225585938
v 215.374328613281 8.02522087097168 2.94729042053223
v 210.087936401367 54.0216445922852 -27.2318725585938
v 217.591018676758 -10.3180780410767 22.5136814117432
v 213.432601928711 -30.8240661621094 0.262666821479797
v 211.898666381836 44.733528137207 -32.2496490478516
v 212.279510498047 42.70068359375 -32.7675094604492
v 218.090393066406 -25.9073715209961 8.32427215576172
v 215.809936523438 47.1912956237793 -28.5155811309814
v 223.186218261719 12.1674127578735 3.00931787490845
v 218.010437011719 42.3293418884277 -28.5949859619141
v 221.24577331543 43.9504089355469 -25.2792453765869
v 222.690017700195 50.5933418273926 -19.2965488433838
v 224.612411499023 19.0398025512695 -17.7329998016357
v 226.104598999023 50.4507942199707 -10.760947227478
v 230.094696044922 25.5280628204346 -1.17877733707428
v 228.258773803711 43.3140563964844 -2.86794137954712
