# 18291 vertice(s)
v -237.986953735352 32.8593254089355 12.2930278778076
v -237.06266784668 30.2067852020264 1.24385237693787
v -236.394805908203 38.5483818054199 25.0510139465332
v -234.747894287109 25.0048980712891 27.4584846496582
v -233.302185058594 18.9204540252686 23.8790130615234
v -231.881546020508 41.9473762512207 3.36438226699829
v -224.541595458984 -35.8248138427734 5.91303682327271
v -225.670379638672 -28.1003398895264 14.2909774780273
v -224.449172973633 -17.6768817901611 -3.69325685501099
v -224.540328979492 -20.3571357727051 7.47034788131714
v -229.424606323242 10.5588474273682 -0.808526873588562
v -222.050338745117 -34.02294921875 -10.0003690719604
v -223.449249267578 -11.1406660079956 -8.03398609161377
v -221.243408203125 -26.2947959899902 -21.777868270874
v -225.848037719727 32.3498458862305 -16.2923736572266
v -228.051849365234 47.490364074707 22.3076362609863
v -219.748153686523 -22.4275493621826 -24.4701347351074
v -224.963226318359 12.032078742981 16.6363868713379
v -223.258331298828 32.9330825805664 -16.9485263824463
v -219.688232421875 -11.8351411819458 -20.2519989013672
v -222.707916259766 -5.63031721115112 4.97350645065308
v -218.229766845703 -11.0677442550659 -22.1092758178711
v -215.21484375 -44.1352348327637 9.87584686279297
v -221.258666992188 48.173168182373 6.4415168762207
v -221.901000976562 8.99764728546143 13.3004426956177
v -213.902694702148 -16.7842617034912 -29.270170211792
v -221.702285766602 36.7963676452637 -12.5188837051392
v -217.805633544922 31.4831447601318 -20.0129928588867
v -211.604843139648 -35.8333168029785 -15.4236707687378
v -215.234420776367 15.0332736968994 -28.0300140380859
v -218.008605957031 46.3919143676758 0.22724087536335
v -214.987777709961 8.6156177520752 -25.2761306762695
v -209.829406738281 -18.4922256469727 -33.4905204772949
v -217.020629882812 38.5699157714844 48.2687530517578
v -214.561218261719 39.4918975830078 -11.9391345977783
v -215.386703491211 53.1927223205566 14.6719903945923
v -211.095184326172 31.5201454162598 -20.7607688903809
v -214.050155639648 53.0630378723145 16.1834716796875
v -205.790267944336 -13.0565614700317 -33.2629089355469
v -211.346984863281 -12.7599267959595 25.971435546875
v -207.762283325195 2.57069420814514 -27.5751819610596
v -209.230834960938 -9.26794147491455 21.0625305175781
v -211.806167602539 21.7790927886963 46.9039459228516
v -202.148330688477 -34.8144493103027 -17.8420505523682
v -210.311874389648 19.6801338195801 45.7304344177246
v -204.653701782227 12.4623546600342 -29.2113380432129
v -199.598983764648 -44.8325729370117 1.19288444519043
v -205.935760498047 29.0895900726318 -22.7036952972412
v -198.331817626953 -48.6703605651855 8.91056632995605
v -206.709426879883 15.598256111145 41.5894203186035
v -204.061721801758 2.81007313728333 20.8031330108643
v -205.202713012695 52.8396873474121 10.6427431106567
v -202.31623840332 31.163402557373 -19.6429653167725
v -201.763381958008 5.00589847564697 22.1038131713867
v -201.052673339844 31.4504680633545 -18.8715076446533
v -201.943923950195 23.6333885192871 44.1437873840332
v -197.015640258789 -37.2488555908203 36.5573196411133
v -192.934982299805 -31.5055999755859 -19.3462715148926
v -197.878372192383 6.70929765701294 22.8485813140869
v -198.781036376953 47.5808868408203 30.3572006225586
v -196.513732910156 17.5513439178467 32.7326202392578
v -193.935882568359 -38.1725578308105 34.2180099487305
v -197.014083862305 47.9731788635254 27.5438041687012
v -191.675506591797 0.731144487857819 -27.6981163024902
v -188.613388061523 -45.0624771118164 11.1774415969849
v -193.575607299805 -12.5873146057129 26.0900135040283
v -194.0126953125 34.4436111450195 29.2535667419434
v -192.158157348633 29.0943222045898 26.196044921875
v -187.888977050781 -39.6620292663574 3.62035155296326
v -190.258331298828 9.12724494934082 18.833158493042
v -187.353256225586 -33.3707962036133 -6.69802188873291
v -185.560653686523 -27.8195266723633 -19.3733386993408
v -184.568222045898 -20.2367610931396 -30.4054374694824
v -191.882736206055 41.1245574951172 4.24367046356201
v -187.35400390625 -21.5278224945068 24.8287925720215
v -184.590606689453 2.43152236938477 -26.795747756958
v -183.293975830078 -13.8581171035767 -31.246114730835
v -186.294570922852 34.6897621154785 -1.05215489864349
v -185.953948974609 16.1643619537354 18.3684673309326
v -182.023742675781 13.1520690917969 -25.3211784362793
v -179.448989868164 -8.2626371383667 -29.3047695159912
v -179.339141845703 -14.2323141098022 -29.8057765960693
v -182.097061157227 25.9593982696533 -13.1065702438354
v -178.943054199219 -8.51901149749756 15.0421772003174
v -179.524124145508 18.9304237365723 17.3178291320801
v -177.683212280273 19.0050315856934 -20.5133743286133
v -173.821243286133 -11.0523538589478 -29.066198348999
v -173.551010131836 4.30013561248779 -27.179479598999
v -173.740081787109 8.72731685638428 12.7147960662842
v -172.763946533203 13.5902462005615 14.7370405197144
v -170.531234741211 7.42551279067993 -26.7525177001953
v -172.27311706543 26.1613731384277 -5.37520503997803
v -167.559295654297 5.3354959487915 -27.3071746826172
v -167.922210693359 21.1476802825928 -15.9893741607666
v -165.255477905273 -11.4313869476318 -27.8451976776123
v -163.547927856445 -14.7445545196533 -26.1030788421631
v -163.976608276367 14.5382356643677 -23.0269012451172
v -162.56884765625 0.722997963428497 10.7337188720703
v -161.09797668457 -9.19938945770264 12.0327577590942
v -158.571884155273 -11.8228187561035 12.2159519195557
v -157.929565429688 -22.4033298492432 0.031342301517725
v -158.365997314453 19.8520736694336 7.27281188964844
v -156.20133972168 18.0124950408936 -19.1702499389648
v -154.690231323242 17.8494262695312 -19.2176113128662
v -152.441848754883 -17.0190486907959 10.704626083374
v -153.403213500977 21.256441116333 -0.969933331012726
v -148.96696472168 -0.562953948974609 -28.7352142333984
v -148.806747436523 13.7093563079834 7.27900314331055
v -146.104522705078 -4.24255180358887 10.2713203430176
v -147.262359619141 20.4053707122803 -2.90802478790283
v -143.576919555664 6.13101577758789 -27.3832530975342
v -142.454818725586 -11.8492002487183 10.6312465667725
v -141.012237548828 18.3001537322998 -17.5310478210449
v -137.980590820312 -9.43162250518799 -27.2495994567871
v -135.648544311523 -16.7409057617188 6.9480185508728
v -137.21630859375 15.8174600601196 1.7081983089447
v -133.093765258789 -1.25976371765137 9.35372829437256
v -132.745727539062 19.5457134246826 -11.5000085830688
v -128.139831542969 -10.516375541687 -26.5497398376465
v -128.014465332031 19.2576389312744 -11.7987985610962
v -125.22151184082 -4.96076917648315 -28.7841644287109
v -125.660774230957 18.8081531524658 -7.73138380050659
v -121.777870178223 7.95407772064209 -25.8355827331543
v -120.43278503418 -4.4736590385437 9.53970336914062
v -118.55443572998 -18.5393600463867 -13.5805683135986
v -114.951683044434 -1.63585317134857 -28.78489112854
v -113.858764648438 -3.64100170135498 -28.7545223236084
v -111.353515625 -17.2333793640137 -18.4459915161133
v -108.962898254395 -1.53192913532257 -28.4259338378906
v -109.370880126953 -5.26213502883911 9.49475955963135
v -107.809562683105 4.87773323059082 -27.2113151550293
v -105.068878173828 -18.2284698486328 -5.41007614135742
v -102.25074005127 -0.82671731710434 -28.5082702636719
v -101.723022460938 18.1608257293701 -12.0831575393677
v -98.8562850952148 -15.6550817489624 1.03347313404083
v -96.0219573974609 -0.694625675678253 -28.2043075561523
v -95.8416290283203 14.8157958984375 -2.42584013938904
v -93.0616302490234 -9.70351123809814 -26.1553421020508
v -89.7974243164062 15.811261177063 -18.0481986999512
v -88.9461517333984 -4.87214469909668 9.29459953308105
v -85.6347732543945 -6.63763570785522 -27.3240413665771
v -85.0125122070312 -16.79665184021 -19.8256072998047
v -82.2074432373047 -9.6795825958252 6.52347469329834
v -80.5477600097656 -1.90983641147614 -27.8430309295654
v -78.4629135131836 14.9029035568237 -17.4997730255127
v -76.6057281494141 -0.514754235744476 8.36171245574951
v -75.1408538818359 -11.7911367416382 3.52644324302673
v -72.5740203857422 16.5199069976807 -8.59988498687744
v -70.4676284790039 3.48789119720459 7.04594039916992
v -67.6069717407227 -3.0761706829071 9.30428886413574
v -64.9397888183594 -18.9448566436768 -15.7035799026489
v -63.7644500732422 -6.87519884109497 8.78975009918213
v -61.7450523376465 -15.1358585357666 -0.66818755865097
v -59.4927940368652 -8.13522052764893 -26.5919055938721
v -58.5013809204102 15.9540538787842 -7.88520002365112
v -55.7045135498047 -14.5921611785889 -0.297623336315155
v -52.7593116760254 15.5740118026733 -15.1484375
v -52.2003135681152 9.4137659072876 1.21551096439362
v -49.6502532958984 5.24718952178955 5.84630918502808
v -46.9328422546387 -11.5148811340332 -25.1198291778564
v -44.6307525634766 -4.13571786880493 -27.3922557830811
v -42.19921875 -19.0657482147217 -18.7535533905029
v -40.6874465942383 -7.2955265045166 7.88505220413208
v -38.8891792297363 -12.3595457077026 -25.0348148345947
v -37.3624610900879 -15.4267282485962 -23.1027297973633
v -34.8422889709473 14.2194204330444 -5.45759725570679
v -33.2656097412109 -8.97639083862305 5.99527406692505
v -30.1864566802979 2.26348662376404 -27.1122016906738
v -28.6403884887695 -6.32607793807983 -27.3715763092041
v -25.7110385894775 -16.311408996582 -1.86193871498108
v -23.7364616394043 2.72304821014404 7.70168781280518
v -21.6806545257568 -9.62460136413574 6.48977947235107
v -20.1628341674805 -11.9037284851074 -25.582820892334
v -16.3784408569336 14.4049549102783 -16.0457859039307
v -15.3017978668213 -19.5549144744873 -5.4629921913147
v -11.6350479125977 -0.572881758213043 11.0688533782959
v -10.031400680542 -7.74693059921265 -27.1631355285645
v -6.87822294235229 14.0815744400024 -15.6167373657227
v -5.9641056060791 15.3740148544312 -10.1491565704346
v -4.72730302810669 -11.0171537399292 -26.3003997802734
v -1.40659260749817 14.0254955291748 -15.1439170837402
v -1.03590071201324 1.3002256155014 9.16649723052979
v 1.9638295173645 -11.927188873291 5.35549783706665
v 4.28476047515869 5.42728519439697 -23.5963287353516
v 5.06164836883545 -20.8461627960205 -4.63013124465942
v 7.52796792984009 -8.09395599365234 9.9398365020752
v 9.8811206817627 -2.8065493106842 -26.7489967346191
v 13.6433534622192 13.4905548095703 -13.5511121749878
v 15.1354722976685 12.6638078689575 -14.7207508087158
v 16.5903472900391 -5.22185373306274 11.2418117523193
v 20.2014274597168 -10.1445188522339 9.4969482421875
v 21.4744434356689 -4.50129413604736 -26.3845157623291
v 24.2565956115723 -2.91586923599243 -25.735559463501
v 25.6310634613037 8.9022741317749 -0.176858320832253
v 26.5331649780273 -23.2193565368652 -4.36170816421509
v 29.8890342712402 4.37342977523804 3.3735191822052
v 32.9162902832031 12.6442108154297 -4.4115047454834
v 34.318977355957 13.7667608261108 -9.01689147949219
v 35.7983665466309 -4.84581470489502 11.3079061508179
v 39.1776466369629 9.55447673797607 -0.226277619600296
v 41.5609855651855 -24.7418651580811 -11.6576309204102
v 43.7220726013184 -21.6035900115967 -17.3961200714111
v 45.1637077331543 -1.04894769191742 9.06010246276855
v 46.7935829162598 -2.28112506866455 -22.7407760620117
v 49.300178527832 -22.9043750762939 2.71803188323975
v 51.4012794494629 11.7997274398804 -4.25452375411987
v 53.2373161315918 -7.27936792373657 14.4884328842163
v 56.5778007507324 11.3269453048706 -3.07451605796814
v 57.1975784301758 -6.19403696060181 -22.9136142730713
v 59.5135955810547 -25.9113960266113 -9.91101264953613
v 62.2266502380371 -14.0781259536743 15.9397974014282
v 64.1148300170898 -16.4028511047363 -20.6394062042236
v 66.6070556640625 -20.3255310058594 -17.7696876525879
v 68.546516418457 5.8266453742981 4.32345867156982
v 70.0689392089844 9.42851257324219 -8.20125389099121
v 72.3510589599609 -26.0567817687988 -9.54955101013184
v 74.4469223022461 -28.0762729644775 -2.44627046585083
v 76.0939331054688 -28.0451374053955 -3.43542075157166
v 79.7666015625 -15.71826171875 -18.9591102600098
v 81.4173431396484 9.57873058319092 -5.41259956359863
v 82.2763977050781 6.72827005386353 3.91300320625305
v 85.1377792358398 9.36921501159668 -0.736366987228394
v 85.7413635253906 -20.2494697570801 -15.6621541976929
v 89.4138946533203 -23.7514400482178 18.4854259490967
v 90.7844085693359 -11.2518978118896 -17.7185592651367
v 93.2518310546875 7.94666290283203 -6.31981945037842
v 96.5171585083008 -20.116548538208 23.0050563812256
v 98.394157409668 -3.37345719337463 15.884295463562
v 99.8009338378906 7.89853000640869 -5.05697679519653
v 101.910140991211 5.10345315933228 7.44210910797119
v 104.784812927246 -28.63454246521 18.2650547027588
v 105.102363586426 7.32832145690918 -4.55332040786743
v 108.244277954102 6.77582406997681 5.60208940505981
v 109.684059143066 2.99498605728149 -9.27635478973389
v 114.107757568359 1.51478731632233 14.2906818389893
v 113.678749084473 7.08205842971802 6.61556911468506
v 113.948356628418 -5.93599510192871 -12.98850440979
v 117.686180114746 -33.1622619628906 14.6772594451904
v 122.012199401855 -18.2426300048828 25.6340847015381
v 121.095268249512 -24.2701797485352 -9.62425231933594
v 124.88224029541 6.46895027160645 10.1767978668213
v 127.828628540039 -19.4235992431641 27.2248268127441
v 130.899963378906 0.891742765903473 23.6363162994385
v 128.597137451172 -23.1774635314941 -10.2318115234375
v 134.83576965332 2.49498510360718 25.6681537628174
v 133.583099365234 10.0168571472168 4.09845733642578
v 138.215835571289 -12.8540172576904 26.884485244751
v 135.768539428711 10.0240488052368 5.02376508712769
v 139.998123168945 18.229700088501 21.6392669677734
v 140.03840637207 -31.9962501525879 21.6358833312988
v 140.020401000977 -16.9303646087646 -11.3944473266602
v 141.104202270508 11.9074296951294 -3.85024333000183
v 149.226318359375 15.7180261611938 34.3371810913086
v 145.095489501953 -37.3324317932129 8.26358604431152
v 151.088302612305 24.5461235046387 22.721170425415
v 147.690277099609 -32.4774475097656 -7.11373567581177
v 149.322311401367 -34.9677696228027 -4.88394069671631
v 157.511917114258 20.561882019043 30.3732109069824
v 157.679000854492 8.28020095825195 32.7850456237793
v 153.571899414062 -35.8877563476562 -6.61299705505371
v 159.394622802734 18.8363609313965 18.7352962493896
v 162.01579284668 15.2274570465088 24.3907127380371
v 157.275894165039 10.381965637207 -12.7540111541748
v 162.108428955078 -33.0241050720215 25.8555316925049
v 163.891876220703 -38.7398986816406 20.3035736083984
v 166.266387939453 -2.45838499069214 32.206672668457
v 168.846435546875 -9.10227203369141 33.4404335021973
v 165.908401489258 21.3454456329346 7.04437255859375
v 164.635864257812 20.143461227417 -6.38455152511597
v 168.475357055664 -48.2489471435547 3.22928643226624
v 172.727310180664 8.36802864074707 21.4279041290283
v 171.738739013672 -50.235595703125 11.1692037582397
v 174.588623046875 7.06756973266602 21.2774505615234
v 173.726913452148 -52.3420753479004 7.13517189025879
v 173.005447387695 27.7102031707764 2.41686058044434
v 179.475387573242 -14.5180358886719 35.5946922302246
v 172.810745239258 16.2118587493896 -14.7909955978394
v 176.232192993164 -28.6075954437256 -20.5095901489258
v 177.305236816406 16.5779113769531 -16.3696613311768
v 177.195922851562 31.1769962310791 -8.96198844909668
v 181.848724365234 -54.0389060974121 2.74820494651794
v 180.434921264648 -29.0341739654541 -21.4372310638428
v 181.598739624023 42.9654121398926 -5.74042177200317
v 183.975845336914 28.0327529907227 12.0021657943726
v 184.876266479492 37.8752517700195 8.73523902893066
v 190.612106323242 -18.9016342163086 34.3787536621094
v 184.366546630859 -21.7440986633301 -25.148609161377
v 187.973678588867 22.3413505554199 16.6081390380859
v 191.313400268555 -7.41153430938721 20.3205699920654
v 189.03271484375 26.7027225494385 16.0842590332031
v 194.865539550781 -26.2435245513916 32.1237945556641
v 190.754669189453 27.1921653747559 17.3076629638672
v 190.803161621094 55.4485321044922 14.1942539215088
v 189.432708740234 60.8856353759766 -0.764208436012268
v 192.172119140625 57.625358581543 12.9483842849731
v 189.016189575195 12.3170261383057 -24.6540145874023
v 194.299423217773 55.4671821594238 18.1090316772461
v 190.647521972656 -43.3630065917969 -13.7052097320557
v 192.44499206543 -31.2308292388916 -20.7066497802734
v 192.122894287109 -45.6234283447266 -11.297290802002
v 193.390258789062 61.3895645141602 -16.0709896087646
v 197.867614746094 46.2415733337402 24.8168640136719
v 199.140350341797 45.9648895263672 25.1507015228271
v 198.866333007812 -48.510814666748 4.10293102264404
v 202.81494140625 -11.0480051040649 19.0572452545166
v 206.296508789062 -35.3571548461914 25.1152458190918
v 201.335968017578 65.0212326049805 6.26773166656494
v 197.895385742188 50.7547492980957 -30.4095878601074
v 199.639175415039 -46.5698661804199 0.998249351978302
v 197.236770629883 45.4151077270508 -32.6054306030273
v 205.022994995117 1.16068291664124 5.92212343215942
v 206.672500610352 -44.3963012695312 9.61580753326416
v 207.907852172852 -3.16594696044922 -4.94183015823364
v 208.503326416016 19.2111511230469 24.090087890625
v 203.300033569336 -41.0761604309082 -6.48290777206421
v 209.933700561523 -42.1189727783203 11.3419981002808
v 204.529815673828 -33.0697402954102 -15.0584764480591
v 210.845291137695 4.050217628479 -11.155029296875
v 204.333938598633 58.0260734558105 -25.5745220184326
v 210.720718383789 -40.5028343200684 2.97541522979736
v 212.271408081055 49.7192344665527 22.9623241424561
v 208.525909423828 57.9066352844238 -24.9445877075195
v 212.626647949219 55.4782981872559 20.0131225585938
v 215.374328613281 8.02522087097168 2.94729042053223
v 210.087936401367 54.0216445922852 -27.2318725585938
v 217.591018676758 -10.3180780410767 22.5136814117432
v 213.432601928711 -30.8240661621094 0.262666821479797
v 211.898666381836 44.733528137207 -32.2496490478516
v 212.279510498047 42.70068359375 -32.7675094604492
v 218.090393066406 -25.9073715209961 8.32427215576172
v 215.809936523438 47.1912956237793 -28.5155811309814
v 223.186218261719 12.1674127578735 3.00931787490845
v 218.010437011719 42.3293418884277 -28.5949859619141
v 221.24577331543 43.9504089355469 -25.2792453765869
v 222.690017700195 50.5933418273926 -19.2965488433838
v 224.612411499023 19.0398025512695 -17.7329998016357
v 226.104598999023 50.4507942199707 -10.760947227478
v 230.094696044922 25.5280628204346 -1.17877733707428
v 228.258773803711 43.3140563964844 -2.86794137954712
