# 18291 vertice(s)
v 1727.75951546014 413.71444601117 309.902971654909
v 1726.50663234298 410.604386145044 301.147956335409
v 1729.37777141676 418.530360036012 319.329808747942
v 1729.79497321154 408.134739031646 322.038205804174
v 1731.36944846093 403.154607900927 319.551697667808
v 1730.74728069832 419.660238403591 302.192278951368
v 1732.98887934427 357.559494055977 308.386070473772
v 1733.38117269241 364.562846904608 314.792321795186
v 1732.85562796665 372.071793272936 299.215150782463
v 1734.4937254984 370.686548824775 308.562150268518
v 1731.32202548084 394.582591649708 300.332557179373
v 1733.67477219533 358.601705961893 295.138481111212
v 1735.71795508997 377.07596330349 295.33990627868
v 1736.19359480291 364.062086111507 285.144925449492
v 1733.82911350773 410.871134808126 286.807035559126
v 1735.90610491898 424.164831240247 316.494681156453
v 1736.1080307639 367.210055749678 282.551903528624
v 1735.16647385668 396.416224219497 313.993507130597
v 1737.31440146918 411.355680292131 286.203603867742
v 1737.46006301037 376.082492012797 285.467596380581
v 1735.49015148385 381.949025139748 305.063852136069
v 1738.02551118515 376.882186262722 283.795431301331
v 1737.28524859973 351.23316723576 311.754142830812
v 1741.13201745586 424.472130012061 303.820890464427
v 1738.01007558525 394.032410127072 311.152295287808
v 1740.35123458488 372.116640757239 278.156206200528
v 1738.31420536898 414.696953531389 289.347763894153
v 1740.84339670495 410.001999703359 283.728459142132
v 1742.22684355483 356.738589708315 289.990107022863
v 1740.4154443306 396.867253815887 278.561326280299
v 1742.98330544253 422.861834190316 298.817764858216
v 1741.64014389285 392.515057912325 280.65449297744
v 1744.46361031461 370.686687214836 274.972985200661
v 1740.80183367192 419.202418589613 337.006745740912
v 1744.36977772874 416.793036705843 289.387875625953
v 1744.37496209293 427.694262155437 309.68499070159
v 1746.14628162913 410.441368116206 282.823617353037
v 1746.2012094537 427.795421648026 310.884943378909
v 1747.81736522879 375.134707651381 274.549384057362
v 1745.3585226307 378.183949638098 322.100057686055
v 1746.99684046121 387.99812685062 278.847001705732
v 1747.3317826984 380.684149088797 317.757109227911
v 1746.28464393802 405.923641880689 336.962744734581
v 1749.85878573334 356.759701476272 287.062484659084
v 1746.71998366418 404.146820024158 336.112143171308
v 1750.91426647349 395.154362704673 277.629414446193
v 1751.3171194756 350.079198072074 303.80464059345
v 1750.44558820141 408.783584473473 281.133537311323
v 1752.89813025491 348.191554001144 310.364949510354
v 1750.3280367822 400.559451927929 332.963806814401
v 1752.4543457429 389.777974965462 316.583599077913
v 1753.270684834 427.633297691819 305.851913216933
v 1753.90510120775 411.130457751893 282.965601908725
v 1754.0306568153 391.421821528404 317.316547750123
v 1755.69072547688 411.448632889931 283.418791178656
v 1755.47530266117 406.888618475774 334.146891282168
v 1757.45562697582 358.424413726654 332.257996279546
v 1758.46684235147 358.862713258374 284.64428783137
v 1757.38875895838 392.777243686668 317.870521701565
v 1757.93141355461 426.172678004499 321.206688789526
v 1759.76230187596 401.267976262547 325.450816563013
v 1760.23982147168 357.733643380098 330.075858255184
v 1759.83945050228 426.274671479296 318.774563739392
v 1761.87608318041 385.497791058397 278.077598261193
v 1762.81976964233 350.559593675178 311.03099077785
v 1761.88278026277 378.413690795912 321.604285332743
v 1761.94616755978 415.758104845492 321.216309837336
v 1764.13662751986 411.065649322244 319.139071408356
v 1764.19826711337 352.765509393003 304.444648743022
v 1764.98712760561 394.705626331741 313.904906973415
v 1764.68650791548 357.26627829377 294.501354390189
v 1766.70102259794 361.885820464204 283.938783044495
v 1767.02295252161 368.591683847041 275.6354836635
v 1764.85337688413 421.059340067049 299.825942789045
v 1767.12384935444 370.460428570064 320.36554138106
v 1768.88791371809 386.706677859461 278.153081963521
v 1768.74084226482 374.205136150334 274.805878575089
v 1769.69191607854 415.791252906894 295.732393893303
v 1769.37286472536 400.61934659996 313.516960183604
v 1772.0733456918 395.574844060836 279.527308319512
v 1773.2396807688 378.448134443212 275.84539500636
v 1772.93713713616 373.862349432539 275.343402217058
v 1772.61654369165 408.176472739581 286.997369685218
v 1774.96296048838 379.4104989259 310.99403399137
v 1776.10073015929 403.330265858803 311.70556495078
v 1777.05986690769 401.544357602228 282.116894914816
v 1778.30141198192 376.48267418738 275.791025271568
v 1778.35205132393 387.326495075577 277.622813494157
v 1780.33858806366 393.924891747759 307.962236014056
v 1781.16708764641 398.437865377241 308.561106853466
v 1783.2998733907 389.987213795102 277.885412290345
v 1782.71675725524 409.07662360626 292.127549766003
v 1785.52787225976 388.141080824411 277.188699426843
v 1786.0323564239 403.469182166001 284.790620951131
v 1786.92424330366 375.253690327062 276.250531107859
v 1788.00993434733 372.484964083092 277.490193638628
v 1790.03555208737 396.630563565053 279.858173029454
v 1790.71740612779 386.52284623862 306.327844996319
v 1791.29093192383 378.318348238181 307.717247767495
v 1793.85820557239 376.099575901616 307.755453581206
v 1794.0829690556 365.558439569258 298.073968808413
v 1794.70770697042 403.917256406225 300.642078277007
v 1797.33803012456 400.319743043895 281.947662739964
v 1798.36280121734 400.179777885709 281.891725546092
v 1799.3302946321 371.372892510308 306.616502132135
v 1800.45240840435 404.909378393825 294.633318022433
v 1803.35629856069 383.22437058089 274.910933047176
v 1803.91446218975 398.336865215314 301.659028437835
v 1805.27912489856 382.309307274701 305.517658993556
v 1806.36302417896 403.91533533367 293.09733563053
v 1808.39763010848 388.384707649426 275.759940448489
v 1809.12455727553 375.790680181339 306.081346868764
v 1811.35129309837 400.365969876501 282.424955364892
v 1813.7765474786 376.363533091499 275.188421369477
v 1815.45516529591 371.152176751655 302.722548588982
v 1815.28240700703 399.786207478372 296.816196384154
v 1818.11882699598 384.508215174777 303.805229558856
v 1820.042989813 402.129845889122 286.326758887312
v 1824.0291490389 375.276745018635 275.450216408964
v 1824.69546467334 401.743434436048 285.841044173904
v 1826.86170645623 379.885844202246 273.858022451094
v 1826.95384274163 401.610493483908 288.85958984546
v 1830.22411176845 390.305379487107 275.527131385682
v 1831.48839167487 381.556058368005 304.025786922901
v 1832.22741324394 368.269881432673 285.671081675273
v 1836.6879124201 382.34920640387 273.468208462371
v 1837.50575688608 380.933437842697 273.397750242135
v 1839.7158674957 369.552067166753 281.458206953011
v 1842.05537425461 382.692897209365 273.292303237705
v 1841.62032091685 380.221685924096 303.597208779927
v 1844.08503814858 387.706975330948 274.30073217561
v 1845.84115707023 368.533186732532 291.798539571106
v 1848.53884758568 382.976316412005 273.266951523049
v 1849.29296696321 399.163240977912 284.931059410043
v 1851.61152330989 370.88860923905 296.428092047349
v 1855.09472577641 383.023939891673 273.094154513663
v 1855.0509230393 396.286007821679 292.59894372465
v 1857.58733283136 375.824734151361 274.32119993344
v 1861.00703050819 396.553547220075 280.14763225304
v 1860.81396801679 380.114775049836 302.802215464418
v 1864.82098219213 378.257284534321 273.37827049088
v 1864.93399545684 369.926530641093 279.51976208551
v 1868.10989583746 375.72132126798 300.129038839867
v 1869.68573693918 382.231873483388 272.993212285157
v 1872.86325284405 395.802840775516 280.223377643596
v 1873.78081187283 384.117914687857 302.149928016153
v 1875.18832269078 373.51555850759 297.490482833547
v 1878.0853028093 396.441825470281 286.883699528767
v 1879.80234807392 387.054179854393 300.528868077672
v 1881.78140934235 382.414210582618 302.547891223296
v 1884.49766370011 367.983938432345 282.857783688515
v 1885.46580699621 378.76654630109 301.87487082422
v 1887.00178136536 371.285306169207 294.521561794936
v 1889.56543477094 376.443014509435 273.711023094466
v 1891.91066929766 395.332875412783 287.110814202329
v 1894.04452716259 371.683164847507 295.006187030823
v 1897.82639967518 394.831687841122 281.827254111643
v 1897.55456936156 390.751356338328 294.9618829468
v 1899.95186048565 387.738243062921 299.055605411264
v 1903.00643499495 373.013035062136 274.914097338504
v 1904.67168802071 379.037718893813 273.130860293067
v 1906.72912424523 367.442977147508 280.647849300796
v 1907.95204305916 378.272363588181 301.512093168121
v 1911.4809722053 372.142015303253 275.299625514922
v 1911.36271583005 369.927506655205 277.081546108356
v 1914.57111762131 393.318949728543 289.223968005453
v 1916.45746799172 377.071800676135 300.244911650165
v 1919.39840872812 383.62503165792 273.54322753458
v 1919.72911021414 376.650779871873 273.48044639246
v 1923.25435302767 370.722981829198 294.375968344961
v 1925.38375718597 386.192412199441 300.495844625476
v 1927.42873367969 377.444455975075 300.618539354145
v 1928.89645582084 371.913476864322 275.289587902178
v 1932.1596128693 392.522605064366 280.709434153873
v 1933.77323704445 367.885730654078 291.555493959095
v 1937.29814298445 383.047229482165 303.122462608432
v 1939.33377835173 374.931104916298 273.987742373811
v 1942.44564568459 392.140528657184 281.154656619435
v 1943.25033969137 392.932324772381 285.141658352074
v 1944.66426005589 371.958406290108 275.201748777087
v 1948.21250251908 392.04362534181 281.398806395551
v 1947.09674987357 384.894925714266 301.775707007549
v 1950.3179705285 374.70604990087 299.065452432199
v 1952.69925786546 385.70871617548 275.324942515834
v 1952.42996190551 366.295031593309 292.269419499305
v 1955.17213992005 377.982148705187 302.475963677066
v 1958.13761275938 378.69658557306 274.013115450772
v 1962.48489581238 391.280534409406 282.349223325777
v 1963.36708771081 390.77709908043 281.312048737116
v 1964.07213737501 380.693361132448 303.712355355325
v 1967.84270121784 376.260539020143 302.281636969675
v 1968.97812287112 377.3343648608 274.521898782561
v 1972.15645755306 378.798165698597 274.634056220837
v 1973.54440584097 388.931134658818 294.892042230673
v 1973.58984796803 364.305415898645 292.428922479682
v 1976.72731172221 386.781623361063 298.540551575583
v 1979.91977489806 390.695131933454 290.745188377496
v 1981.8780730082 391.29515356669 286.470921062896
v 1983.51132763884 380.892563609876 304.629863780909
v 1986.20191351923 389.095136213071 294.676314332888
v 1987.94320633422 362.598671309143 286.785140532338
v 1990.00771414899 364.808684101136 282.489720531026
v 1992.38014088618 383.6637130456 303.041338089511
v 1993.67207195884 380.116229966396 276.587804509098
v 1995.72847277917 364.339514481253 297.419690159735
v 1998.55683350509 390.68595781619 290.331755691056
v 1999.39358694811 378.860419374887 306.596303572718
v 2003.17228348689 390.561441216741 290.581627894442
v 2003.92357936863 377.345646382137 277.281475914521
v 2005.87595878537 362.221119551342 287.937198923363
v 2007.70902072116 373.7039893218 307.130695968173
v 2009.76116243211 369.832982601847 279.72893909916
v 2013.77565207876 366.654998708782 282.115551759932
v 2015.27894879827 388.456711451775 297.813654443644
v 2016.2257561593 388.091218293711 285.130828998926
v 2017.80360932304 362.39878507556 288.245685284381
v 2019.99370946181 360.726548776083 293.45444927191
v 2022.34205020107 360.762045826674 292.835310946272
v 2025.61653427752 370.688060189912 281.354455581487
v 2027.49763602993 388.74873542063 288.578785025413
v 2028.18324249259 389.094782499001 297.816751977771
v 2031.38240642244 389.902452500447 293.299329569351
v 2031.17078008873 367.096765275708 284.087192313208
v 2034.32298366589 365.286623280661 308.353091415114
v 2037.06929411803 374.059526134405 282.144604493812
v 2038.58749037712 388.038197601673 288.537890899217
v 2040.628139836 369.647448874304 312.013116710984
v 2043.04549283398 382.855042106174 308.333817609824
v 2045.69299194824 388.874760739189 290.602556276959
v 2046.13151131985 389.106049225348 301.714569093933
v 2048.97575925813 362.941337846096 309.607435857101
v 2050.74005126383 388.872218959899 291.278571737859
v 2053.11780923106 389.807878599352 300.664691611278
v 2055.88569427526 385.183530447112 287.693193342802
v 2057.96672449714 386.530910191044 308.280372462266
v 2058.26718263484 389.916833572199 301.748552848466
v 2059.03068673962 378.295590356869 286.053448230651
v 2061.45656529968 359.723131610233 307.634790274164
v 2064.32567762485 372.628747714403 317.011116198623
v 2065.61927195315 364.976349122541 290.374276022668
v 2068.20769428284 390.288445824341 305.598560626872
v 2069.7334908492 371.643161015331 318.392012934139
v 2072.59576656946 385.780145476985 315.224878417
v 2072.71267177897 365.772487112088 290.735683487216
v 2075.64169068072 386.704487745703 316.952154903545
v 2077.8791036502 392.162127294121 300.387308431569
v 2078.67889096102 376.147105603808 319.158155956981
v 2079.56033567948 392.510965390462 300.964304938924
v 2081.1858908684 399.747251586722 313.658550871806
v 2081.81977852512 361.632555727439 315.724451925338
v 2084.55032292922 370.286909284904 290.518961574708
v 2084.96448460109 392.266561373239 293.991785993716
v 2088.31872417255 396.619829230734 323.838531357926
v 2087.63040803512 356.884656775628 306.302254457776
v 2090.68746457713 403.543222669442 314.240124252862
v 2090.73449101945 359.67176704662 295.883562904706
v 2092.53054276329 358.072611624768 298.046004216909
v 2095.34096749836 399.372457615067 321.14044828925
v 2096.65245008611 390.492932673888 323.85266385738
v 2096.53199072325 357.440850071761 297.924994106208
v 2099.48603556432 398.725029760902 312.19129034534
v 2101.37959154006 395.38796967958 317.071742418293
v 2101.30639360486 388.170061478538 288.642016111067
v 2101.40194452107 362.563420083002 323.021878501656
v 2104.17624025924 357.651213889683 319.721618776975
v 2104.17966223333 383.026231521824 324.759807434766
v 2106.45387978259 378.842626237006 326.639628798627
v 2107.90491429255 401.549875905902 303.595995384353
v 2107.99419403734 398.405666016125 293.705578513391
v 2110.43648485514 349.711921776286 308.4479594059
v 2112.23708944006 389.154924588788 316.355268088149
v 2112.9227179326 349.352544639494 314.917490211938
v 2113.50718523379 387.993190559093 316.378456869492
v 2115.35296575142 347.274956568295 312.383140527467
v 2115.71513691555 406.150838300215 299.991980298043
v 2115.57846356383 375.351375500756 329.378870352015
v 2116.28801650188 394.281391600409 288.494088829345
v 2119.53687983236 362.48455231573 290.723111771122
v 2120.99064604696 394.540157797321 287.495855051179
v 2120.87857272362 407.835778260995 291.412032734121
v 2122.73463385013 345.980350326259 309.944529681469
v 2123.05703374449 361.881421117008 289.639454143397
v 2123.23838368506 418.794115103568 291.643363792498
v 2124.2209602217 407.285994609783 306.423592680121
v 2125.79289469204 416.276916436917 302.880353599951
v 2124.55048310935 371.714912620003 329.427031667113
v 2127.09414073067 366.91293593102 286.672805519908
v 2127.38903265299 401.844182400298 310.139622594635
v 2126.55991623371 378.132538640978 318.193776090592
v 2128.84776293302 406.086419547842 309.558855306781
v 2127.91804341259 367.481839261682 329.270683632056
v 2129.80375675242 406.462885125758 310.416050145012
v 2130.64052488202 430.316458817943 305.615605492667
v 2131.17526340942 433.190234043578 294.244628224975
v 2132.38122289035 431.785068710352 304.665394411921
v 2131.55551375858 392.145820142279 282.921280467829
v 2133.35450281925 429.998726163916 308.797008109825
v 2131.89697683911 352.337534488187 296.664195578027
v 2134.68888179162 359.993673253533 289.812427391794
v 2133.67803358058 350.445738715434 299.000341129978
v 2134.67868930225 431.89347183007 282.918435275922
v 2136.49025007891 422.496892316343 315.366006477799
v 2136.91903958855 422.174942407305 315.945118520854
v 2136.63620535179 350.578400156069 311.891870279791
v 2137.25731568033 375.19747118579 319.436298499851
v 2137.45840438995 362.272296560004 327.351942820005
v 2140.59428382888 436.6833448515 299.264562793722
v 2140.37940441678 421.521406270786 273.179168474007
v 2138.48487912649 351.050386742059 309.095520611226
v 2139.66412371093 416.67099488145 272.022565252737
v 2141.72573826862 386.60391458995 304.171409662597
v 2141.55270093465 354.422220512766 316.117810053863
v 2143.09203118827 383.459065556603 297.226073582069
v 2143.15612344132 399.291340098846 313.035946512291
v 2143.01917104451 353.262114842437 302.593676983396
v 2143.23478478581 355.918515701019 317.53425232863
v 2144.43138891266 358.519891943064 295.052693434908
v 2146.25299531285 389.290983072947 291.314407003362
v 2146.46859436757 427.756712491288 276.350050072839
v 2147.54720647769 355.583764711358 310.514499659632
v 2149.42042153444 424.900480026779 314.511057018024
v 2148.63717131733 427.827819489625 277.476473698676
v 2148.73366217493 429.635332073517 311.063960156714
v 2149.60319607367 393.19228777018 299.935487016687
v 2150.57471361248 424.738858645002 275.952772629043
v 2148.36469112236 375.443403070256 322.503228455557
v 2149.65405571444 359.753184104485 306.627520074376
v 2155.02338274514 416.925987673053 273.850283956352
v 2151.96472536546 415.205613483486 273.783176947608
v 2150.93482865482 364.773822552272 312.637344605627
v 2154.94149035215 419.531360838564 276.509634497002
v 2155.16591604391 395.664842212931 301.26114183458
v 2155.39465959141 415.683498035355 277.054829876511
v 2157.98662138786 417.588999886892 279.724597210806
v 2160.32368283052 422.952242960288 283.471335771572
v 2158.55039529205 399.334739039816 287.775706578396
v 2160.4404264876 423.673429985468 289.819446243909
v 2160.37473339688 405.087540119248 298.613765533077
v 2161.96928520675 418.948097718174 296.418116518802
